<svg width="154" height="154" viewBox="0 0 154 154" fill="none" xmlns="http://www.w3.org/2000/svg">
<path d="M130.448 49.6635C130.065 51.1966 127.742 50.43 126.891 50.1464C126.819 50.119 126.739 50.1214 126.669 50.153C126.598 50.1846 126.543 50.2429 126.516 50.315C126.516 50.3994 126.278 51.2119 125.972 52.3923C125.952 52.4589 125.956 52.53 125.983 52.5941C126.009 52.6581 126.057 52.7113 126.117 52.7449C127.126 53.2692 128.239 53.5624 129.375 53.6035C129.444 53.6076 129.509 53.6348 129.561 53.6807C129.612 53.7266 129.647 53.7885 129.659 53.8564L129.82 54.7226C129.825 54.7621 129.839 54.8 129.859 54.8342C129.88 54.8684 129.907 54.8981 129.939 54.9217C129.971 54.9453 130.007 54.9622 130.046 54.9714C130.085 54.9807 130.125 54.9821 130.165 54.9756L132.464 54.6459C132.505 54.6389 132.545 54.6233 132.58 54.6C132.615 54.5768 132.644 54.5465 132.667 54.5111C132.689 54.4757 132.704 54.4359 132.71 54.3944C132.716 54.353 132.713 54.3107 132.702 54.2703C132.625 53.9714 132.51 53.5038 132.41 53.0822C132.396 53.0262 132.398 52.9672 132.417 52.9126C132.437 52.858 132.471 52.8103 132.518 52.7756C133.126 52.2959 133.562 51.6314 133.76 50.8823C134.702 47.3102 130.693 45.003 130.693 45.003C128.225 43.5619 125.956 42.7801 126.439 41.3773C127.014 39.6986 129.505 41.0554 130.272 41.5613C130.338 41.6007 130.416 41.6139 130.491 41.5983C130.567 41.5826 130.633 41.5394 130.678 41.4769L131.843 39.5836C131.882 39.5156 131.895 39.4354 131.878 39.3588C131.861 39.2822 131.815 39.2148 131.751 39.1697C129.582 37.6903 128.486 38.1425 128.401 37.6366L128.21 36.3642C128.198 36.284 128.156 36.2116 128.091 36.1627C128.027 36.1139 127.945 36.0926 127.865 36.1036L125.619 36.4485C125.579 36.4547 125.54 36.4693 125.506 36.4912C125.472 36.5132 125.443 36.5421 125.42 36.576C125.398 36.6099 125.383 36.6482 125.376 36.6883C125.37 36.7284 125.371 36.7694 125.381 36.8088C125.657 37.9356 125.772 38.1349 125.496 38.2729C124.931 38.5568 124.445 38.9763 124.081 39.4939C123.717 40.0116 123.487 40.6112 123.411 41.2393C122.936 46.7967 131.314 46.2754 130.448 49.6635ZM35.8813 59.7127C35.6206 61.4297 32.7232 61.2458 31.719 61.1385C31.622 61.1295 31.5252 61.1578 31.4484 61.2176C31.3715 61.2774 31.3202 61.3642 31.3051 61.4604L31.1058 63.921C31.0912 63.9939 31.1043 64.0697 31.1426 64.1335C31.1808 64.1972 31.2415 64.2445 31.3127 64.2659C32.5605 64.5594 33.8593 64.5594 35.1071 64.2659C35.1792 64.2466 35.256 64.2557 35.3216 64.2913C35.3873 64.327 35.4367 64.3865 35.4597 64.4575L35.7586 65.5997C35.7716 65.638 35.792 65.6734 35.8187 65.7038C35.8454 65.7343 35.8778 65.7591 35.9142 65.7769C35.9505 65.7947 35.99 65.8052 36.0304 65.8076C36.0708 65.8101 36.1113 65.8046 36.1495 65.7913C36.9898 65.3867 37.8583 65.0434 38.7481 64.7642C38.8383 64.7295 38.9121 64.6622 38.9547 64.5755C38.9974 64.4888 39.0057 64.3891 38.978 64.2966C38.8554 63.9976 38.6408 63.2771 38.4875 62.8402C38.4668 62.7782 38.4637 62.7117 38.4786 62.6481C38.4935 62.5845 38.5257 62.5262 38.5718 62.4799C39.2083 61.8247 39.6284 60.9899 39.7752 60.0883C40.4804 55.9567 35.659 54.5923 35.659 54.5923C32.6925 53.7338 30.025 53.5268 30.4159 51.8788C30.8835 49.9011 33.8193 50.706 34.7928 50.9973C34.8834 51.0215 34.9796 51.0124 35.0641 50.9716C35.1485 50.9308 35.2154 50.861 35.2527 50.775L36.3335 48.4141C36.3523 48.3794 36.364 48.3413 36.368 48.302C36.372 48.2628 36.3682 48.2232 36.3568 48.1854C36.3454 48.1476 36.3266 48.1125 36.3016 48.082C36.2765 48.0515 36.2457 48.0263 36.2109 48.0078C35.0398 47.5464 33.7783 47.3602 32.5239 47.4636C32.4545 47.4722 32.3842 47.4562 32.3254 47.4183C32.2666 47.3805 32.2229 47.3233 32.2019 47.2566L31.811 45.8768C31.7988 45.8347 31.7774 45.7957 31.7485 45.7627C31.7195 45.7297 31.6836 45.7035 31.6434 45.6859C31.6031 45.6683 31.5595 45.6599 31.5156 45.6611C31.4717 45.6623 31.4286 45.6731 31.3894 45.6929L28.8905 46.4057C28.7995 46.4373 28.724 46.5026 28.6798 46.5882C28.6356 46.6738 28.6259 46.7732 28.6529 46.8657C29.1205 48.3987 29.2508 48.552 28.9748 48.7667C28.3693 49.2077 27.8747 49.7836 27.5301 50.4488C27.1856 51.114 27.0005 51.8503 26.9895 52.5993C27.0585 58.7316 36.4945 55.8034 35.8813 59.7127ZM72.1688 25.1039C72.5904 25.3338 71.7012 26.223 72.1688 26.407L74.0008 26.9359C74.0346 26.9462 74.0701 26.9493 74.1051 26.9451C74.1402 26.9409 74.1739 26.9294 74.2042 26.9113C74.2346 26.8933 74.2608 26.8691 74.2812 26.8403C74.3016 26.8115 74.3158 26.7788 74.3228 26.7442C74.5911 25.7017 74.5987 25.5944 74.798 25.5484C75.451 25.3885 76.0394 25.0328 76.4844 24.529C78.623 22.168 76.63 19.0713 76.63 19.0713C75.4112 17.1473 74.0621 15.7905 74.982 14.9013C76.0858 13.8282 77.3276 15.6679 77.7185 16.3424C77.735 16.3693 77.7566 16.3926 77.7821 16.411C77.8077 16.4294 77.8366 16.4425 77.8673 16.4497C77.8979 16.4568 77.9297 16.4578 77.9608 16.4525C77.9918 16.4473 78.0215 16.4359 78.0481 16.4191L79.6578 15.3842C79.6871 15.3682 79.7129 15.3466 79.7338 15.3205C79.7547 15.2945 79.7702 15.2646 79.7795 15.2325C79.7887 15.2005 79.7915 15.1669 79.7878 15.1337C79.784 15.1006 79.7737 15.0685 79.7575 15.0393C79.3372 14.2466 78.7422 13.5599 78.0174 13.031C77.8258 12.8854 77.9101 12.755 78.3164 11.7279C78.3296 11.6974 78.3361 11.6644 78.3354 11.6312C78.3347 11.598 78.3267 11.5653 78.3122 11.5354C78.2976 11.5056 78.2767 11.4792 78.251 11.4582C78.2253 11.4371 78.1953 11.4219 78.1631 11.4136L76.3847 10.9077C76.3167 10.8913 76.2449 10.9022 76.1848 10.938C76.1246 10.9738 76.0809 11.0317 76.0628 11.0993L75.7945 12.0422C75.78 12.0971 75.7484 12.146 75.7043 12.1818C75.6602 12.2176 75.6059 12.2385 75.5492 12.2415C75.0042 12.2687 74.4733 12.4238 73.9992 12.6941C73.5252 12.9644 73.1214 13.3424 72.8204 13.7975C70.2065 17.7988 76.5534 20.267 74.5374 22.513C73.6482 23.5095 72.2378 22.1757 71.7396 21.6621C71.6923 21.6162 71.6291 21.5906 71.5633 21.5906C71.4974 21.5906 71.4342 21.6162 71.387 21.6621L70.1528 23.0266C70.1155 23.0719 70.095 23.1288 70.095 23.1875C70.095 23.2463 70.1155 23.3032 70.1528 23.3485C70.6809 24.0808 71.3708 24.6815 72.1688 25.1039ZM86.5029 45.1026C86.5081 45.1639 86.5349 45.2214 86.5783 45.2649C86.6218 45.3083 86.6793 45.3351 86.7406 45.3403C103.773 46.8043 104.501 47.7165 104.785 47.3869C105.068 47.0573 105.467 45.8538 104.923 45.7465C99.0928 44.501 93.16 43.7979 87.2005 43.6462C86.7252 43.6462 86.4646 44.5967 86.5029 45.1026ZM69.0567 38.9934C68.4281 38.9934 71.4023 39.576 86.2117 42.6651C91.8836 42.9999 97.5319 43.6577 103.129 44.6351C103.136 44.6376 103.144 44.6387 103.151 44.6383C103.158 44.6379 103.166 44.6361 103.173 44.6329C103.179 44.6297 103.185 44.6252 103.19 44.6196C103.195 44.6141 103.199 44.6076 103.202 44.6006C103.204 44.5935 103.205 44.586 103.205 44.5786C103.205 44.5711 103.203 44.5638 103.2 44.557C103.196 44.5502 103.192 44.5442 103.186 44.5392C103.181 44.5341 103.174 44.5303 103.167 44.5277C94.8658 40.5418 78.9526 38.5411 69.0567 38.9934Z" fill="currentColor"/>
<path d="M130.195 60.4946C133.936 60.4946 139.202 58.7009 140.973 55.1289C145.925 45.1103 141.218 33.666 134.84 30.8605C132.763 29.956 130.648 29.749 127.06 30.094C125.737 30.2493 124.458 30.6686 123.299 31.3269C122.141 31.9852 121.126 32.8692 120.315 33.9266C113.263 42.6804 118.222 60.4946 130.195 60.4946ZM117.931 40.5648C119.87 30.2856 128.77 27.986 134.749 33.5357C143.61 41.7529 140.566 58.9768 130.456 59.843C122.446 60.5559 116.014 50.6983 117.923 40.6261L117.931 40.5648Z" fill="currentColor"/>
<path d="M125.888 56.6772C126.975 57.252 128.184 57.5594 129.414 57.574C134.143 57.574 138.765 52.2773 137.845 44.3973C136.688 34.2945 127.267 29.4117 122.009 35.8888C117.126 41.9061 119.119 53.1818 125.888 56.6772ZM127.298 33.5356C131.522 33.137 136.588 37.2073 137.424 44.4587C138.39 52.8905 132.395 59.429 126.14 56.1712C123.573 54.8375 120.621 51.4801 120.008 46.0454C119.395 40.6107 121.879 34.0415 127.298 33.5356ZM71.1036 29.6646C71.8519 29.9718 72.6556 30.1208 73.4642 30.1023C74.2729 30.0839 75.069 29.8983 75.8024 29.5573C83.6134 26.2229 86.2579 11.9271 79.2135 8.98362C74.6143 7.05963 69.8388 11.6895 68.0068 16.3576C66.0522 21.3401 66.6884 27.8403 71.1036 29.6646ZM77.1055 9.06027C81.6127 9.06027 83.4064 14.0734 82.7395 18.7416C82.1416 22.9038 79.6734 26.8974 76.5 28.7065C73.3265 30.5155 70.2528 29.5803 68.6584 26.8055C65.002 20.3973 70.521 9.06027 77.1055 9.06027Z" fill="currentColor"/>
<path d="M71.2874 32.0946C72.6537 32.7446 74.1372 33.1122 75.649 33.1754C79.9569 33.1754 84.3721 29.4654 86.5414 23.977C88.9329 17.8448 87.7448 11.2679 83.7742 8.64638C82.64 8.06744 81.4729 7.55554 80.2788 7.11332C72.9968 4.07786 64.0054 14.1347 65.5461 24.5289C66.1363 28.4535 68.2213 31.2207 71.2874 32.0946ZM66.9948 15.9361C68.1119 12.8913 70.1477 10.2689 72.8205 8.43176C75.2964 6.82971 77.8949 6.46177 80.1408 7.38927C87.8061 10.5704 86.0738 25.2648 78.0175 30.4618C69.647 35.8582 62.8556 26.4376 66.9948 15.9361ZM31.1212 73.9165C35.194 74.1612 39.2021 72.8114 42.2972 70.1528C50.3994 64.8867 51.3346 53.2891 44.9417 45.7158C40.1433 40.0281 32.3936 38.0505 26.1081 40.902C8.96846 46.26 13.9892 72.529 31.1212 73.9165ZM34.0034 40.1891C47.6706 41.9368 53.6572 59.7893 43.5697 68.6121C33.6967 77.2202 17.5076 68.8727 17.7299 54.7149C17.8755 45.9381 25.0963 39.093 34.0034 40.1968V40.1891Z" fill="currentColor"/>
<path d="M27.641 67.7076C29.1807 68.5933 30.8892 69.1458 32.656 69.3293C34.4227 69.5129 36.2083 69.3234 37.8972 68.773C45.2559 66.3048 48.529 57.2751 44.2287 49.7554C39.9285 42.2358 30.4312 40.4804 24.5212 45.6008C17.6301 51.6104 19.5005 63.1161 27.641 67.7076ZM32.3015 43.3089C38.5794 43.3089 44.1904 48.161 45.3325 54.7072C47.2489 65.5996 35.5593 73.1806 26.3992 66.2971C24.6458 64.9827 23.2272 63.273 22.2589 61.3071C21.2906 59.3411 20.7998 57.1745 20.8266 54.9832C20.9645 48.4523 25.947 43.3089 32.3015 43.3089ZM85.5601 69.2253C85.5008 69.2259 85.4436 69.2472 85.3985 69.2856C85.3534 69.324 85.3232 69.377 85.3131 69.4354C85.3031 69.4938 85.3139 69.5539 85.3436 69.6051C85.3733 69.6564 85.4201 69.6956 85.4758 69.7159C87.8597 70.4824 88.1893 68.796 87.1851 66.5578C87.1658 66.4998 87.1243 66.4519 87.0696 66.4246C87.015 66.3973 86.9518 66.3928 86.8938 66.4121C86.8359 66.4314 86.788 66.473 86.7607 66.5276C86.7334 66.5822 86.7289 66.6455 86.7482 66.7034C86.9075 67.39 86.9948 68.0913 87.0088 68.796C86.9781 69.1257 86.9628 69.2406 85.5601 69.2253ZM80.34 69.4093C80.041 71.7089 82.7316 73.6252 84.6326 72.7207C84.6833 72.6945 84.7229 72.6509 84.7441 72.5979C84.7653 72.5449 84.7668 72.4861 84.7482 72.4321C84.7295 72.3781 84.6921 72.3327 84.6428 72.304C84.5934 72.2754 84.5353 72.2655 84.4793 72.2761C84.044 72.3418 83.5999 72.3195 83.1734 72.2104C82.7469 72.1014 82.3467 71.9078 81.9964 71.6411C81.6461 71.3745 81.3529 71.0402 81.1342 70.6582C80.9155 70.2761 80.7758 69.854 80.7233 69.4169C80.7243 69.3661 80.7051 69.317 80.6698 69.2803C80.6346 69.2436 80.5863 69.2225 80.5355 69.2215C80.4846 69.2205 80.4355 69.2397 80.3988 69.2749C80.3622 69.3101 80.341 69.3584 80.34 69.4093ZM82.9539 65.5536C83.7204 65.6763 84.1267 63.3 83.3448 63.1774C82.5629 63.0547 82.1643 65.4233 82.9539 65.5536ZM90.2436 63.8443C89.477 63.7139 89.0478 66.2282 89.9216 66.2282C90.6575 66.2282 91.0178 63.9746 90.2436 63.8443ZM84.7399 60.5558C84.0807 59.2451 82.0187 59.1837 81.0759 60.5558C81.0387 60.6057 81.0206 60.6671 81.0248 60.7291C81.029 60.7911 81.0552 60.8495 81.0986 60.8939C81.1421 60.9383 81.2 60.9657 81.2619 60.9712C81.3237 60.9766 81.3855 60.9598 81.4361 60.9238C81.8376 60.5865 82.3422 60.3966 82.8664 60.3854C83.3906 60.3743 83.9029 60.5426 84.3183 60.8625C84.3653 60.8952 84.4214 60.9124 84.4787 60.9118C84.536 60.9112 84.5917 60.8927 84.6381 60.859C84.6844 60.8253 84.7192 60.778 84.7374 60.7237C84.7556 60.6694 84.7565 60.6107 84.7399 60.5558ZM92.1676 61.8283C92.2022 61.8762 92.2521 61.9108 92.309 61.9266C92.3659 61.9424 92.4265 61.9384 92.4809 61.9153C92.5353 61.8921 92.5801 61.8511 92.6081 61.7991C92.6362 61.7471 92.6457 61.6871 92.6351 61.629C92.5252 61.318 92.3432 61.0374 92.1042 60.8102C91.8652 60.5829 91.5758 60.4153 91.2597 60.3211C90.9435 60.227 90.6096 60.2089 90.2852 60.2683C89.9607 60.3278 89.6549 60.463 89.3927 60.6632C89.3477 60.6989 89.3161 60.7488 89.3033 60.8049C89.2904 60.8609 89.297 60.9196 89.322 60.9714C89.347 61.0232 89.3889 61.0649 89.4408 61.0896C89.4926 61.1144 89.5514 61.1208 89.6074 61.1077C90.0524 60.9183 90.5487 60.8865 91.0143 61.0175C91.4798 61.1485 91.8867 61.4346 92.1676 61.8283ZM25.9317 115.953C25.8941 117.624 26.2567 119.28 26.9895 120.782C27.0077 120.829 27.0434 120.866 27.0889 120.887C27.1343 120.907 27.186 120.909 27.2329 120.892C27.2798 120.875 27.3183 120.841 27.3401 120.796C27.3619 120.751 27.3654 120.699 27.3497 120.652C26.8527 119.14 26.5941 117.56 26.5832 115.968C26.5832 115.148 26.7902 114.205 27.1504 114.09C27.3267 114.037 27.756 114.136 28.6375 115.424C28.6639 115.468 28.7066 115.499 28.7562 115.511C28.8058 115.524 28.8582 115.516 28.902 115.489C28.9457 115.463 28.9771 115.42 28.9893 115.371C29.0015 115.321 28.9935 115.269 28.9671 115.225C27.595 112.458 26.0083 113.201 25.9317 115.953ZM34.6701 137.47C33.5935 137.34 32.572 136.922 31.7137 136.26C30.8555 135.597 30.1925 134.715 29.795 133.706C29.7665 133.649 29.7191 133.605 29.6611 133.58C29.603 133.555 29.538 133.551 29.4775 133.57C29.4171 133.588 29.365 133.627 29.3305 133.68C29.2961 133.733 29.2814 133.796 29.2891 133.859C29.5443 135.077 30.2241 136.164 31.207 136.926C32.19 137.689 33.412 138.077 34.6548 138.021C34.691 138.022 34.7271 138.016 34.761 138.003C34.7948 137.99 34.8258 137.971 34.8521 137.946C34.8785 137.921 34.8996 137.891 34.9144 137.858C34.9292 137.825 34.9374 137.789 34.9384 137.753C34.9394 137.717 34.9333 137.681 34.9203 137.647C34.9074 137.613 34.8879 137.582 34.863 137.556C34.8381 137.529 34.8082 137.508 34.7751 137.493C34.742 137.479 34.7063 137.471 34.6701 137.47ZM34.2485 119.234C33.5663 119.686 34.6088 121.372 35.337 121.372C35.4108 121.37 35.4832 121.352 35.5493 121.32C35.6154 121.287 35.6735 121.24 35.7195 121.182C35.7655 121.124 35.7983 121.057 35.8157 120.986C35.833 120.914 35.8345 120.839 35.8199 120.767C35.7816 120.046 34.8464 118.812 34.2485 119.234ZM37.4373 118.36C36.9237 118.053 36.5558 118.36 36.5788 118.82C36.6171 119.54 37.5293 120.759 38.1118 120.353C38.6944 119.947 38.1578 118.812 37.4373 118.36ZM20.3896 116.758C16.9632 116.267 14.2574 116.758 12.0728 118.13C11.995 118.18 11.9379 118.256 11.9118 118.345C11.7335 118.92 11.7662 119.539 12.0038 120.092C12.0215 120.13 12.0468 120.163 12.0782 120.19C12.1095 120.218 12.1462 120.238 12.1859 120.25C12.2255 120.263 12.2673 120.266 12.3085 120.262C12.3498 120.257 12.3896 120.244 12.4254 120.223C14.8117 118.981 17.5401 118.558 20.1903 119.019C20.2211 119.027 20.2532 119.028 20.2845 119.023C20.3159 119.018 20.3458 119.007 20.3724 118.989C20.3991 118.972 20.4219 118.949 20.4393 118.923C20.4568 118.896 20.4686 118.866 20.474 118.835C20.5971 118.233 20.6435 117.617 20.6119 117.003C20.609 116.943 20.5853 116.885 20.5447 116.841C20.5042 116.796 20.4494 116.767 20.3896 116.758ZM42.3431 127.244C41.155 127.244 41.2623 130.647 42.4197 130.617C43.5772 130.586 43.5005 127.244 42.3431 127.244ZM45.5165 128.011C45.3402 127.305 44.796 127.198 44.3667 127.781C43.7382 128.616 43.6922 130.479 44.5124 130.479C45.3325 130.479 45.7465 128.892 45.5165 128.011ZM74.8823 135.929H72.5827C72.4908 135.932 72.4034 135.969 72.337 136.033C72.2707 136.096 72.2299 136.182 72.2224 136.274L72.0538 137.753C72.0471 137.868 72.0847 137.982 72.1588 138.07C72.2329 138.158 72.3379 138.215 72.4524 138.228C73.3341 138.32 74.2229 138.32 75.1046 138.228C75.2152 138.217 75.3167 138.162 75.3871 138.076C75.4575 137.99 75.4909 137.879 75.4802 137.768L75.3269 136.35C75.3144 136.239 75.263 136.136 75.1816 136.058C75.1002 135.981 74.9942 135.935 74.8823 135.929ZM76.4997 136.289L76.377 137.753C76.3727 137.871 76.4141 137.987 76.4926 138.075C76.5711 138.164 76.6807 138.219 76.7986 138.228C77.7141 138.309 78.6349 138.309 79.5505 138.228C79.6643 138.215 79.7686 138.158 79.8414 138.069C79.9143 137.981 79.9501 137.867 79.9414 137.753C79.7421 136.749 79.9414 135.944 79.2975 135.929C78.6536 135.913 77.7108 135.929 76.8676 135.929C76.7725 135.932 76.6821 135.971 76.6141 136.038C76.5461 136.105 76.5053 136.194 76.4997 136.289ZM81.0452 138.228C81.9401 138.313 82.8409 138.313 83.7357 138.228C83.8469 138.217 83.9492 138.162 84.0208 138.076C84.0923 137.99 84.1276 137.88 84.119 137.768L83.9657 136.35C83.9509 136.235 83.8945 136.128 83.8071 136.05C83.7198 135.973 83.6072 135.93 83.4904 135.929H81.1142C81.0215 135.932 80.9332 135.969 80.8655 136.032C80.7978 136.096 80.7555 136.181 80.7463 136.274L80.6313 137.738C80.626 137.797 80.6326 137.857 80.6506 137.914C80.6686 137.971 80.6976 138.024 80.7361 138.069C80.7746 138.115 80.8217 138.152 80.8748 138.18C80.9278 138.207 80.9857 138.224 81.0452 138.228ZM85.2765 138.228C86.2231 138.297 87.1736 138.297 88.1203 138.228C88.1767 138.225 88.2318 138.21 88.2824 138.184C88.333 138.159 88.3781 138.124 88.4152 138.081C88.4522 138.039 88.4804 137.989 88.4982 137.935C88.516 137.882 88.5231 137.825 88.5189 137.768L88.3579 136.343C88.3364 136.226 88.2747 136.121 88.1837 136.046C88.0927 135.97 87.978 135.929 87.8597 135.929H85.3454C85.2506 135.93 85.1594 135.966 85.0889 136.029C85.0184 136.093 84.9733 136.18 84.9622 136.274L84.8472 137.738C84.842 137.798 84.849 137.86 84.868 137.917C84.8869 137.975 84.9173 138.029 84.9574 138.074C84.9975 138.12 85.0464 138.158 85.1012 138.184C85.1561 138.21 85.2157 138.226 85.2765 138.228ZM113.446 131.966C111.147 131.483 103.091 135.139 102.83 135.423C102.201 136.09 102.493 138.113 103.022 138.704C103.551 139.294 118.046 145.526 122.951 146.553C124.308 146.653 129.084 144.445 130.348 143.855C131.882 143.088 133.53 142.475 133.806 140.965C133.806 140.965 134.089 139.079 133.369 138.558C129.038 135.829 120.223 133.376 113.446 131.966ZM113.362 132.449C118.452 133.422 128.478 136.404 132.786 138.903C131.567 139.869 124.354 143.211 123.296 143.387C119.31 141.249 108.019 137.255 103.244 135.814C103.543 135.515 111.201 132.042 113.324 132.449H113.362ZM123.273 145.817C120.912 145.817 105.704 139.531 103.597 138.412C103.16 138.182 102.976 136.879 103.098 136.189C106.701 137.539 122.407 143.249 123.105 143.985C123.284 144.253 123.39 144.563 123.413 144.884C123.435 145.205 123.374 145.527 123.235 145.817H123.273ZM133.238 140.85C133.047 141.877 132.111 142.322 130.249 143.203C128.204 144.199 126.085 145.032 123.91 145.694C124.084 145.088 124.029 144.439 123.756 143.87C125.604 143.387 131.889 140.597 133.223 139.317C133.276 139.828 133.261 140.343 133.177 140.85H133.238Z" fill="currentColor"/>
<path d="M130.31 138.581C130.003 137.968 113.4 132.824 112.726 132.97C110.932 133.369 109.66 133.737 106.042 135.553C106.002 135.571 105.969 135.599 105.946 135.635C105.922 135.671 105.91 135.713 105.91 135.756C105.91 135.799 105.922 135.841 105.946 135.878C105.969 135.914 106.002 135.942 106.042 135.96C110.311 137.539 123.074 142.092 123.319 142.046C130.356 138.788 130.517 138.987 130.31 138.581ZM107.544 135.99C109.156 135.091 110.884 134.418 112.68 133.99C118.574 135.438 124.316 137.393 128.723 138.964C126.818 139.664 124.963 140.497 123.174 141.456C119.694 140.129 113.094 137.692 107.544 135.99Z" fill="currentColor"/>
<path d="M133.499 125.013C133.483 124.779 133.409 124.553 133.284 124.354C133.502 124.35 133.714 124.292 133.904 124.185C134.093 124.078 134.252 123.925 134.367 123.741C134.482 123.557 134.549 123.347 134.562 123.13C134.575 122.913 134.534 122.696 134.442 122.499C141.387 116.275 150.041 105.635 149.581 104.363C149.266 103.512 149.266 105.551 121.986 101.174C116.275 88.6032 109.376 76.3004 93.7467 75.8175C93.681 75.8159 93.6168 75.8372 93.565 75.8778C93.5133 75.9183 93.4773 75.9756 93.4631 76.0397C92.4819 80.317 89.3851 90.1439 81.8348 88.9635C76.1778 88.0743 72.1535 81.5971 70.6511 75.5185C72.1849 75.5829 73.7212 75.547 75.2503 75.4112C75.3027 75.4063 75.3522 75.3853 75.3921 75.3509C75.4319 75.3166 75.4601 75.2706 75.4726 75.2196C76.103 72.592 76.2304 69.8689 75.8482 67.194C75.844 67.1612 75.8327 67.1296 75.8151 67.1016C75.7976 67.0735 75.7742 67.0495 75.7465 67.0313C75.7189 67.0131 75.6876 67.0011 75.6549 66.9961C75.6222 66.9911 75.5887 66.9933 75.5569 67.0024C73.5026 67.5389 72.8587 64.5725 73.4796 63.1697C73.5683 62.9478 73.7299 62.7628 73.9379 62.6452C74.1459 62.5276 74.3878 62.4844 74.6236 62.5228C74.8595 62.5612 75.0752 62.6789 75.2351 62.8564C75.395 63.034 75.4896 63.2607 75.5033 63.4993C75.5033 64.5035 77.8028 62.1732 77.4962 59.797C77.8182 59.797 78.1325 59.797 78.4391 59.7433C78.8913 59.6897 78.3318 57.942 80.0948 56.3169C79.9108 56.8872 79.887 57.497 80.0258 58.0799C80.1254 58.4019 81.5589 58.4325 82.3867 58.2026C82.6857 58.1259 82.5477 57.3364 83.8278 54.9372C85.9701 55.3913 88.1534 55.625 90.3433 55.6347C91.2362 56.3058 92.049 57.0774 92.7655 57.9343C96.1383 61.9739 91.9453 74.0928 87.1392 76.7986C85.1999 77.8871 83.3065 77.5651 81.3902 76.423C81.1833 76.2927 81.0299 76.1931 80.915 76.354C80.8821 76.3895 80.8638 76.436 80.8638 76.4843C80.8638 76.5327 80.8821 76.5792 80.915 76.6146C83.8891 79.0675 87.4228 78.7149 90.259 74.8056C90.7112 74.8746 92.3516 75.0203 92.5586 74.6063C92.8701 73.8959 93.0791 73.1449 93.1795 72.3757C93.808 74.0084 93.2254 75.2119 93.8233 75.1506C94.549 75.1201 95.2521 74.8893 95.8546 74.4837C95.8788 74.4627 95.8981 74.4368 95.9114 74.4077C95.9246 74.3786 95.9314 74.347 95.9313 74.3151C95.9505 73.3204 95.8501 72.327 95.6324 71.3562C96.6978 72.8893 96.7362 73.5409 96.9431 73.5639C97.38 73.6328 98.8595 72.5367 98.8364 72.2378C98.5985 71.0639 98.1464 69.944 97.5027 68.934C97.1658 68.1197 97.0701 67.2257 97.2267 66.3585C97.8628 67.5979 98.327 68.9183 98.6065 70.2831C98.6525 70.5284 98.6678 70.6664 98.9131 70.6587C99.3501 70.6232 99.7757 70.5012 100.165 70.2999C100.555 70.0985 100.9 69.8219 101.182 69.4859C101.212 69.4548 101.233 69.4166 101.243 69.375C101.254 69.3335 101.254 69.2898 101.243 69.2483C101.107 68.6489 100.915 68.0637 100.668 67.5006C101.857 68.1062 103.152 67.5006 103.167 67.125C103.267 64.2045 102.569 62.9934 101.688 62.0736C101.926 62.2039 103.52 62.1349 103.896 61.261C103.96 60.9526 103.96 60.6343 103.896 60.3259C103.789 59.6854 103.55 59.0743 103.194 58.5317C102.838 57.9891 102.372 57.5271 101.826 57.1754C100.538 56.2863 99.4343 55.8723 99.0587 54.4542C100.983 55.0675 100.937 56.7538 103.167 57.781C103.193 57.7991 103.224 57.8089 103.256 57.8089C103.287 57.8089 103.318 57.7991 103.344 57.781C104.432 57.2061 104.624 55.8033 104.363 55.6577C102.569 54.6842 102.316 51.7101 98.7751 51.2118C100.423 50.7979 101.075 51.0662 101.128 50.6599C101.187 50.3046 101.161 49.9403 101.05 49.5976C100.939 49.2548 100.748 48.9436 100.492 48.6899C98.8452 48.3421 97.1402 48.3789 95.5097 48.7973C95.7013 47.9157 95.8316 47.2642 95.8316 47.2642C95.8316 47.0802 96.6595 47.2105 85.5831 46.237C76.6301 44.0601 77.1973 44.1367 77.1513 44.336C77.1513 44.3744 76.883 48.2147 77.0133 51.1275C77.1053 53.0975 80.915 54.2703 83.3065 54.8069C82.6782 55.6917 82.2708 56.7141 82.1184 57.7887C81.5392 57.7462 80.9576 57.7462 80.3784 57.7887C80.4203 57.1775 80.5074 56.5703 80.639 55.972C80.7003 55.6577 80.7233 55.5581 80.639 55.4891C80.3707 55.2744 78.1478 56.6159 78.1785 59.3217C77.3353 59.3217 77.0363 59.2374 76.3464 59.1914C76.2284 57.617 76.662 56.0505 77.5729 54.7609L77.6265 54.6842C77.6427 54.6646 77.6547 54.642 77.6621 54.6177C77.6695 54.5934 77.672 54.5679 77.6695 54.5426C77.667 54.5173 77.6596 54.4928 77.6476 54.4704C77.6356 54.448 77.6193 54.4282 77.5997 54.4121C77.5801 54.396 77.5575 54.3839 77.5332 54.3765C77.5089 54.3692 77.4834 54.3667 77.4581 54.3691C77.4328 54.3716 77.4083 54.3791 77.3859 54.3911C77.3635 54.403 77.3437 54.4193 77.3276 54.4389C76.7239 55.1251 76.2811 55.9375 76.0318 56.8168C75.7825 57.6961 75.7328 58.6201 75.8865 59.521C75.8954 59.5747 75.9209 59.6243 75.9594 59.6628C75.9979 59.7013 76.0474 59.7268 76.1012 59.7356C76.4078 59.7816 76.722 59.8046 77.0363 59.82C76.9335 60.9644 76.52 62.0591 75.8405 62.9857C75.7356 62.7097 75.5561 62.4681 75.3219 62.2881C75.0878 62.1081 74.8082 61.9967 74.5144 61.9662C71.6476 61.6673 72.1459 68.1751 75.3806 67.5236C75.3806 69.1333 75.3806 70.1528 75.2656 71.9388L74.2461 72.5214C73.8354 71.5628 73.2908 70.6673 72.6288 69.8615C72.6123 69.8434 72.5921 69.8289 72.5697 69.819C72.5472 69.8091 72.523 69.804 72.4985 69.804C72.4739 69.804 72.4497 69.8091 72.4272 69.819C72.4048 69.8289 72.3847 69.8434 72.3681 69.8615C72.082 70.9982 72.0066 72.1777 72.1459 73.3416C71.5522 73.3427 70.9648 73.22 70.4212 72.9813C70.136 71.3025 70.0819 69.5926 70.2602 67.8992C70.2655 67.851 70.2558 67.8022 70.2326 67.7596C70.2094 67.717 70.1736 67.6826 70.1302 67.6608C70.0868 67.6391 70.0378 67.6313 69.9898 67.6382C69.9418 67.6452 69.897 67.6667 69.8616 67.6999C68.7696 68.6938 67.8863 69.895 67.2631 71.2336C66.6002 71.0773 66.0154 70.6884 65.615 70.1375C66.7495 67.263 68.4588 66.6114 68.5278 63.4993C68.5311 63.4553 68.5212 63.4114 68.4995 63.373C68.4777 63.3347 68.445 63.3036 68.4056 63.2839C68.3661 63.2642 68.3217 63.2566 68.278 63.2622C68.2342 63.2678 68.1931 63.2863 68.1599 63.3153C67.133 64.1331 66.1624 65.0192 65.2547 65.9675C64.768 65.5146 64.4378 64.9187 64.3119 64.2658C66.1822 62.9321 67.6157 61.7133 67.8226 59.3217C67.8226 59.2681 67.8226 59.1148 67.7306 59.0611C67.6387 59.0074 67.6233 59.0611 66.5349 59.8276C65.8728 60.2342 65.2866 60.753 64.8025 61.3607C64.2987 60.8361 64.0231 60.1333 64.036 59.406C66.0136 57.7657 67.7766 57.6583 68.1599 54.8069C68.1658 54.7725 68.1623 54.7372 68.1496 54.7047C68.137 54.6722 68.1157 54.6438 68.0881 54.6225C68.0605 54.6013 68.0276 54.5879 67.993 54.5839C67.9584 54.5799 67.9233 54.5854 67.8916 54.5999C66.6786 55.1439 65.5606 55.8789 64.5802 56.7768C64.2604 56.3497 64.0309 55.862 63.9057 55.3434C67.8763 53.4808 68.5815 50.9359 71.1954 50.0467C71.41 49.9777 71.4023 49.8167 71.272 49.7324C70.8887 49.5025 68.0449 49.3721 65.5077 51.0279C65.1657 50.4707 64.9927 49.8264 65.0095 49.1729C69.486 47.4788 71.0037 47.6858 73.5716 48.092C72.54 50.5373 71.8687 53.1193 71.5786 55.7573C71.7779 56.1866 72.943 56.1176 72.943 56.1176C73.0624 54.0377 73.4277 51.9793 74.0315 49.9854C73.8751 51.8335 73.8137 53.6883 73.8475 55.5427C74.3061 55.559 74.7648 55.5152 75.212 55.4124C75.12 52.4536 75.12 47.2565 76.6531 43.1556L85.0849 45.0719C85.1101 45.0766 85.1361 45.0755 85.1608 45.0687C85.1856 45.0618 85.2084 45.0495 85.2276 45.0325C85.2468 45.0155 85.2619 44.9943 85.2717 44.9706C85.2815 44.9469 85.2858 44.9212 85.2842 44.8956C85.2369 44.425 85.336 43.9512 85.5678 43.5389C85.7134 43.2859 86.3803 43.5389 68.0602 39.5376C67.9661 39.5201 67.8689 39.5378 67.787 39.5872C67.705 39.6367 67.6441 39.7145 67.6157 39.8058C67.2631 40.971 67.8686 41.1626 67.8686 41.1626L75.4189 42.8796C75.2513 43.6793 75.018 44.4639 74.7214 45.2252C73.6636 44.3744 72.0922 43.9451 71.8239 44.2134C71.0574 44.9799 70.9884 46.1374 71.2107 46.2907C71.7742 46.6489 72.312 47.0459 72.8204 47.4788C69.9689 46.8963 67.5467 47.4788 64.6185 48.6746C64.5687 48.6977 64.5264 48.7345 64.4966 48.7806C64.4668 48.8267 64.4506 48.8803 64.4499 48.9352C64.4381 49.8423 64.7355 50.7263 65.2931 51.4418C65.6303 51.871 66.7725 50.3533 69.9919 50.0774C68.1446 51.0202 66.9258 53.2125 63.8597 54.8452C63.553 55.0138 63.4151 55.0905 63.4227 55.2438C63.4339 55.6454 63.5298 56.0401 63.7042 56.4021C63.8786 56.764 64.1275 57.085 64.4346 57.3441C64.7948 57.4974 64.4346 57.2368 67.6157 55.2054C66.8491 57.551 65.4157 57.3594 63.53 59.0381C63.2848 59.2527 63.3537 60.7781 64.5955 61.9433C64.6457 61.9924 64.7131 62.0199 64.7833 62.0199C64.8536 62.0199 64.921 61.9924 64.9711 61.9433C65.6508 61.1581 66.423 60.4581 67.2707 59.8583C66.4352 62.8094 63.622 63.622 63.7293 64.1279C63.747 64.6193 63.8865 65.0987 64.1354 65.5229C64.3842 65.947 64.7347 66.3027 65.1551 66.5578C65.615 66.7341 65.4004 66.3125 68.0602 64.0282C67.7383 66.8414 65.6457 67.6462 65.0861 70.0838C64.9788 70.3828 65.7913 71.5402 67.3857 71.9158C68.0219 72.0538 67.5543 70.9577 69.6853 68.5507C69.5294 70.0825 69.568 71.6279 69.8003 73.1499C69.9153 73.7938 71.617 73.9165 72.4601 73.8245C72.966 73.7555 72.4601 73.5025 72.6134 70.628C74.2078 73.6098 73.4873 73.5639 75.1813 72.5674C75.12 73.3339 75.051 74.1004 74.959 74.867C71.4943 74.66 70.4978 74.9666 70.4672 74.821C70.4365 74.6753 70.3905 74.4224 70.1835 74.4147C48.7207 73.7632 34.1566 93.1411 30.5386 114.228C27.4418 110.38 24.253 111.147 22.9959 113.937C13.031 112.603 5.59567 117.187 4.0856 125.642C3.06612 131.345 4.23891 135.607 7.91826 139.44C7.42768 145.066 8.68479 145.296 10.9844 145.725C12.6426 146.024 14.349 145.908 15.9515 145.388C16.0976 145.357 16.2288 145.277 16.3235 145.161C16.4182 145.045 16.4708 144.901 16.4727 144.752C17.1856 144.752 18.642 144.706 19.1479 144.1C19.3039 143.82 19.3682 143.498 19.3319 143.18C21.8078 143.502 20.8113 142.782 21.3939 144.905C21.6698 145.924 21.8998 146.177 22.7583 146.438C24.7283 146.982 31.1901 147.158 31.673 145.005C32.6619 145.081 35.3754 145.173 35.9349 143.954C36.115 143.189 36.1822 142.401 36.1342 141.616C40.5188 140.551 43.7536 138.006 45.4936 134.242C54.416 133.775 61.0848 131.813 65.8756 128.248C67.838 131.682 69.9996 131.399 68.9418 128.731C70.6665 130.601 72.1152 129.498 70.6894 126.876C71.0763 127.262 71.5807 127.507 72.1229 127.574L74.6907 132.863H73.472C73.2573 132.863 73.2343 133.001 73.219 133.146C73.2137 133.225 73.2137 133.305 73.219 133.384C73.2014 133.38 73.183 133.38 73.1653 133.384H70.8657C70.2832 133.445 69.8539 134.58 69.3327 135.89C68.4588 138.19 68.4512 138.857 68.4358 139.616C68.3887 140.192 68.4687 140.771 68.67 141.313C68.8713 141.855 69.1891 142.345 69.601 142.751C70.1146 143.264 90.236 143.571 90.6422 143.058C91.1563 142.496 91.501 141.801 91.6367 141.053C91.7723 140.304 91.6933 139.532 91.4088 138.826C91.4088 138.78 89.4771 134.227 89.1092 133.905C88.5554 133.642 87.9422 133.528 87.3308 133.576H87.2082V133.307C87.1989 133.222 87.1587 133.143 87.0951 133.085C87.0316 133.027 86.9492 132.994 86.8632 132.993C86.0967 132.993 85.5525 132.955 84.9239 132.993C84.6173 132.993 84.6633 133.369 84.648 133.553H83.7511C83.7511 133.422 83.7511 133.07 83.3832 133.062H81.0836C80.8 133.062 80.8383 133.407 80.823 133.484H80.0564C80.0564 133.438 80.0564 132.985 79.6885 132.978C79.3206 132.97 78.6614 132.978 78.2781 132.978C78.2824 132.911 78.2824 132.845 78.2781 132.778C78.2168 132.257 75.005 125.956 74.7291 125.435H106.762C113.753 126.378 118.329 126.799 126.301 127.213C127.236 128.923 129.237 128.831 129.513 127.681C130.877 128.103 131.813 127.735 131.813 126.332C132.124 126.383 132.443 126.336 132.727 126.199C133.011 126.062 133.246 125.841 133.399 125.565C147.718 125.565 147.427 125.696 147.419 125.305C147.411 124.914 147.764 125.013 133.499 125.013ZM93.854 54.7915C94.501 53.0603 95.0136 51.2818 95.3871 49.4718C96.7208 48.8892 98.7828 48.9812 100.301 49.2572C100.545 49.5908 100.676 49.9935 100.676 50.407C99.621 50.4049 98.5824 50.6686 97.656 51.1735C97.6333 51.1849 97.6133 51.2011 97.5974 51.2209C97.5816 51.2408 97.5701 51.2638 97.564 51.2885C97.495 51.5414 97.8246 51.5568 98.0853 51.5874C102.125 52.0857 101.918 54.9295 104.064 55.9413C103.916 56.4751 103.64 56.9646 103.259 57.3671C101.144 56.041 101.151 54.2166 98.8211 53.979C98.7945 53.9774 98.7679 53.9819 98.7433 53.9921C98.7186 54.0023 98.6966 54.0179 98.6789 54.0379C98.6612 54.0578 98.6483 54.0815 98.641 54.1071C98.6338 54.1328 98.6325 54.1597 98.6371 54.186C98.9054 57.597 103.083 56.6849 103.535 61.0847C103.091 61.3723 102.577 61.5314 102.048 61.5447C101.913 60.7285 101.54 59.9702 100.978 59.3638C100.415 58.7574 99.6862 58.3296 98.8824 58.1336C98.8528 58.1235 98.8211 58.1209 98.7902 58.1259C98.7593 58.1309 98.7301 58.1434 98.7051 58.1623C98.6802 58.1812 98.6602 58.206 98.647 58.2344C98.6339 58.2628 98.6278 58.294 98.6295 58.3252C98.6938 59.023 98.907 59.6988 99.2548 60.3071C99.6025 60.9153 100.077 61.4419 100.645 61.8513C102.033 63.1007 102.738 64.0819 102.661 66.9717C102.404 67.1053 102.122 67.1833 101.833 67.2004C101.543 67.2176 101.254 67.1736 100.983 67.0713C101.305 64.0052 99.189 61.7593 98.9974 62.4722C98.1926 65.454 100.032 66.4045 100.668 69.2023C100.249 69.6098 99.7132 69.8775 99.1354 69.9688C98.8024 68.387 98.1758 66.8815 97.2881 65.5306C97.2733 65.496 97.2488 65.4666 97.2174 65.4458C97.1861 65.4251 97.1493 65.4141 97.1118 65.4141C97.0742 65.4141 97.0374 65.4251 97.0061 65.4458C96.9747 65.4666 96.9502 65.496 96.9355 65.5306C96.0309 68.704 97.3417 69.2023 98.3689 72.1151C97.9906 72.4448 97.5705 72.7232 97.1194 72.943C96.4909 71.157 94.6742 69.256 94.9118 70.2984C95.1789 71.5626 95.3632 72.8429 95.4637 74.1311C95.0202 74.3445 94.543 74.4794 94.0533 74.5297C94.1435 73.439 93.8418 72.3518 93.2024 71.4636C93.1862 71.4354 93.1627 71.412 93.1344 71.3958C93.1061 71.3796 93.0741 71.3713 93.0415 71.3716C92.6352 71.3716 93.1181 72.0615 92.0833 74.1541C91.6105 74.2595 91.1235 74.2854 90.6422 74.2307C92.3562 71.5735 93.5767 68.6289 94.2449 65.5383C95.3334 60.1342 94.0226 57.804 91.1788 55.5734C92.2443 55.5887 93.5167 55.4201 93.854 54.7915ZM101.558 61.9662C100.668 61.0694 99.6413 60.4332 99.1124 58.6548C99.7669 58.9548 100.335 59.4159 100.762 59.9951C101.19 60.5743 101.464 61.2525 101.558 61.9662ZM100.461 67.1097C99.7486 65.6533 99.0511 64.8867 99.3117 62.9781C100.18 64.172 100.588 65.639 100.461 67.1097ZM71.5326 45.9917C71.6328 45.5309 71.8402 45.1002 72.1382 44.7346C72.9968 44.8986 73.8115 45.2406 74.5298 45.7388C74.2845 46.375 74.0162 47.0419 73.7632 47.7394C73.2505 46.9108 72.4599 46.2914 71.5326 45.9917ZM30.7839 142.153C30.5999 142.958 30.9372 143.954 30.9218 144.69C30.8758 146.346 24.6133 146.262 22.8963 145.817C22.536 145.717 22.1987 145.633 21.9611 144.767C21.8385 144.322 21.7771 144 21.7235 143.694C21.3785 141.808 21.4169 143.832 14.2881 141.517C13.9898 141.397 13.6785 141.312 13.3606 141.264C13.3174 141.261 13.2745 141.274 13.2396 141.299C13.2048 141.325 13.1801 141.362 13.1701 141.405C13.16 141.447 13.1651 141.491 13.1845 141.53C13.204 141.569 13.2365 141.599 13.2763 141.616C14.1093 142.018 14.9831 142.329 15.8825 142.544C15.7905 144.759 15.9822 144.798 15.7369 144.844C14.2226 145.309 12.6177 145.398 11.061 145.104C8.80743 144.675 8.03324 144.445 8.50849 139.355C8.58514 138.543 3.22709 135.331 4.87513 125.757C6.26255 117.762 13.1077 113.446 22.7506 114.489C22.0613 116.89 22.2044 119.454 23.1569 121.763C23.1721 121.812 23.2061 121.853 23.2514 121.877C23.2967 121.9 23.3496 121.905 23.3983 121.89C23.4471 121.875 23.4879 121.841 23.5116 121.795C23.5353 121.75 23.5401 121.697 23.5248 121.648C21.1639 113.531 26.062 108.349 31.3281 116.428C31.365 116.483 31.4187 116.523 31.4811 116.544C31.5434 116.565 31.6109 116.565 31.673 116.543C38.7021 114.244 39.7983 120.514 42.6651 122.277C40.5341 123.22 39.6679 127.137 39.5146 129.176C39.2617 132.38 40.3425 137.661 43.1557 136.749C37.8589 142.644 31.1825 140.467 30.7839 142.153ZM39.7216 113.285C38.7093 114.018 37.9531 115.05 37.56 116.237C36.4594 115.606 35.1882 115.338 33.9266 115.47C38.8861 110.304 42.9717 111.599 40.1585 118.598C39.5903 117.867 38.9279 117.215 38.1885 116.658C38.4485 115.48 39.0639 114.41 39.9516 113.592C39.9922 113.562 40.0191 113.516 40.0263 113.466C40.0335 113.416 40.0204 113.364 39.9899 113.324C39.9594 113.283 39.914 113.256 39.8637 113.249C39.8134 113.242 39.7623 113.255 39.7216 113.285ZM45.0873 133.629C44.7554 134.553 44.1514 135.355 43.355 135.929C40.8791 137.332 39.9899 132.012 40.2122 129.183C40.3808 127.052 41.4233 122.675 43.5313 122.675C45.9305 122.698 46.9193 129.306 45.1027 133.629H45.0873ZM69.3327 124.791C69.3156 124.769 69.2944 124.751 69.2703 124.738C69.2462 124.725 69.2197 124.716 69.1923 124.713C69.1649 124.71 69.1371 124.712 69.1106 124.719C69.084 124.727 69.0592 124.739 69.0376 124.757C69.0159 124.774 68.9979 124.795 68.9844 124.819C68.971 124.843 68.9624 124.87 68.9592 124.897C68.956 124.924 68.9582 124.952 68.9658 124.979C68.9733 125.005 68.986 125.03 69.0031 125.052C69.6514 125.894 70.1683 126.829 70.5361 127.827C70.7048 128.348 70.7738 128.961 70.6051 129.076C70.4365 129.191 69.9076 128.892 69.486 128.539C68.4052 127.635 67.9529 126.73 67.723 126.884C67.608 126.945 67.654 127.091 67.723 127.213C68.0296 127.781 69.1334 130.126 68.5355 130.195C67.9376 130.264 66.7495 128.585 66.3662 127.965C66.2052 127.696 66.0443 127.397 65.776 127.597C59.8507 131.866 51.9784 133.024 45.7772 133.53C47.0803 130.141 46.904 125.351 45.3786 123.174C45.1847 122.842 44.9085 122.567 44.5768 122.373C44.2452 122.18 43.8692 122.075 43.4853 122.07C42.3891 121.687 41.3543 120.108 40.5111 119.004C42.0442 115.309 42.0442 112.872 40.4115 111.998H40.3655C37.9049 110.909 34.9308 113.247 33.1141 115.593C32.6555 115.684 32.2025 115.802 31.7574 115.945C31.5427 115.593 31.3128 115.248 31.0905 114.926C31.8044 111.57 32.7208 108.26 33.8347 105.015C37.9279 104.708 53.6265 109.208 57.9957 111.959C58.0094 111.969 58.025 111.975 58.0414 111.978C58.0578 111.98 58.0746 111.98 58.0906 111.975C58.1066 111.971 58.1215 111.963 58.1343 111.952C58.147 111.942 58.1572 111.928 58.1643 111.913C61.997 103.719 61.79 97.4873 58.6779 89.684C58.172 88.4039 59.2681 88.5955 59.6361 89.3314C65.3467 100.906 60.2723 114.244 56.7386 119.778C52.9059 116.827 50.2537 114.719 45.4936 114.167C45.4323 114.157 45.3696 114.172 45.319 114.208C45.2684 114.244 45.2339 114.298 45.2229 114.36C45.2119 114.421 45.2252 114.484 45.26 114.535C45.2949 114.586 45.3484 114.622 45.4093 114.635C53.3199 116.421 56.1407 121.449 62.9398 124.791C63.0069 124.824 63.0836 124.831 63.1556 124.811C63.2275 124.792 63.2898 124.746 63.3308 124.684C65.0938 121.932 67.5543 120.506 70.1299 120.728C69.899 120.862 69.6896 121.03 69.509 121.227C69.0951 121.671 69.325 121.947 69.6623 122.545C69.6272 122.581 69.6075 122.629 69.6075 122.679C69.6075 122.729 69.6272 122.778 69.6623 122.813C72.7744 125.151 73.8399 129.735 69.3327 124.791ZM90.213 142.575C88.7566 142.575 72.9814 142.483 70.0072 142.253C69.6616 141.834 69.403 141.35 69.2463 140.831C69.0897 140.311 69.0383 139.765 69.0951 139.225C76.3458 139.839 83.6313 139.932 90.8952 139.501C91.0133 140.032 91.0134 140.582 90.8956 141.114C90.7777 141.645 90.5447 142.143 90.213 142.575ZM78.1861 135.086V135.04C78.7759 135.071 79.367 135.071 79.9568 135.04C80.3784 134.994 80.1791 134.442 80.1408 134.02H80.8076C80.8076 134.465 80.5777 135.063 81.0376 135.116C81.8988 135.208 82.7673 135.208 83.6285 135.116C84.0807 135.07 83.8278 134.457 83.8124 134.028H84.6326C84.6326 134.388 84.4027 134.994 84.8703 135.055C85.6137 135.143 86.365 135.143 87.1085 135.055C87.3308 135.055 87.3768 134.863 87.3692 134.672C87.3692 134.672 87.3691 134.403 87.3232 134.143C87.8141 134.117 88.3061 134.171 88.7796 134.304C88.9022 134.48 90.4429 138.09 90.7879 139.056C85.5908 139.056 73.3263 138.865 69.1487 138.78C69.3327 137.876 70.5821 134.066 70.9347 133.92H73.1193C73.1344 133.925 73.1503 133.925 73.1653 133.92C73.1653 134.189 73.1653 134.434 73.1193 134.472C73.1193 134.725 73.1193 134.932 73.4183 134.963C74.5567 135.037 75.6987 135.037 76.837 134.963C77.2433 135.155 77.4196 135.224 77.4809 135.247C77.8105 135.423 78.0481 135.354 78.1861 135.086ZM77.6572 132.487C77.7896 133.248 77.7896 134.026 77.6572 134.787C77.2126 134.61 75.8865 133.897 75.8022 133.859C75.7179 133.821 75.4419 133.208 72.5981 127.42C72.6865 127.339 72.7573 127.241 72.8061 127.132C72.8548 127.022 72.8806 126.904 72.8817 126.784C72.9354 125.872 72.0692 124.216 70.3139 122.79C69.7773 121.664 69.2944 121.556 70.7738 120.966C71.6706 120.606 71.6629 120.851 71.8392 121.173C73.3493 123.864 75.3883 127.566 77.6419 132.487H77.6572ZM73.6866 123.411L72.5598 121.342C74.6371 121.901 75.8789 122.691 76.0322 123.204C76.1855 123.718 74.3535 123.465 73.6866 123.411ZM126.14 126.638C110.15 125.473 94.6205 123.158 89.2855 122.17C97.38 115.171 108.97 106.118 114.581 100.377C126.57 103.129 138.773 104.685 148.975 104.754C147.94 107.422 137.976 118.046 134.005 122.101C132.87 121.533 130.548 122.208 130.793 123.419C129.551 123.373 129.13 123.802 128.984 124.071C128.914 124.199 128.878 124.342 128.878 124.488C128.878 124.634 128.914 124.778 128.984 124.906C128.264 124.906 127.589 125.136 127.574 125.841C126.608 125.512 126.087 125.987 126.14 126.6V126.638ZM126.753 126.868C126.416 126.209 127.006 126.148 127.719 126.439C128.041 126.927 128.511 127.298 129.061 127.497C128.869 128.348 127.244 127.842 126.753 126.83V126.868ZM131.023 127.068C130.379 127.589 127.957 126.592 128.133 125.826C128.172 125.588 128.54 125.374 129.436 125.466C129.985 125.86 130.617 126.122 131.284 126.232C131.299 126.376 131.284 126.521 131.239 126.659C131.194 126.796 131.121 126.923 131.023 127.029V127.068ZM132.924 125.243C132.801 125.642 132.41 125.78 131.698 125.673C129.398 125.32 128.44 123.871 131.161 124.032C131.612 124.335 132.153 124.476 132.694 124.431C132.801 124.526 132.879 124.648 132.919 124.785C132.96 124.922 132.962 125.067 132.924 125.205V125.243ZM131.498 123.557C130.732 122.79 133.468 122.147 133.913 122.79C133.961 122.881 133.986 122.983 133.986 123.086C133.986 123.188 133.961 123.29 133.913 123.381C133.599 124.002 131.928 123.956 131.498 123.519V123.557Z" fill="currentColor"/>
</svg>
