<svg width="154" height="154" viewBox="0 0 154 154" fill="none" xmlns="http://www.w3.org/2000/svg">
<path fill-rule="evenodd" clip-rule="evenodd" d="M132.502 60.9239C132.625 61.1769 133.092 61.2535 133.399 61.3072C135.898 61.7518 146.729 61.9817 147.771 61.0849C148.684 60.3184 148.178 47.7933 147.289 47.2873C146.139 46.6051 133.598 46.4748 132.724 47.1724C132.088 47.7013 131.69 59.1532 132.502 60.9239ZM132.916 47.3333C133.614 46.7508 145.863 47.1877 146.967 47.7243C147.557 49.3033 147.94 59.2222 147.365 60.6326C146.43 61.2765 134.97 61.2535 132.97 60.6326C132.188 58.7546 132.479 47.7013 132.916 47.3333ZM102.017 45.9919C101.713 46.5119 101.303 46.9618 100.813 47.3119C100.323 47.6619 99.7639 47.9044 99.1734 48.0232C99.1553 48.0186 99.1364 48.0181 99.1181 48.0219C99.0998 48.0257 99.0826 48.0337 99.0678 48.0451C99.053 48.0566 99.0411 48.0713 99.0329 48.0881C99.0246 48.1049 99.0204 48.1233 99.0204 48.142C99.0204 48.1607 99.0246 48.1792 99.0329 48.196C99.0411 48.2128 99.053 48.2274 99.0678 48.2389C99.0826 48.2504 99.0998 48.2583 99.1181 48.2621C99.1364 48.2659 99.1553 48.2655 99.1734 48.2608C100.523 48.6134 102.278 47.387 102.278 46.0379C102.284 46.0033 102.276 45.9678 102.256 45.939C102.236 45.9103 102.205 45.8907 102.171 45.8846C102.136 45.8785 102.1 45.8864 102.072 45.9065C102.043 45.9266 102.023 45.9573 102.017 45.9919ZM95.7547 39.1315V39.898C95.7547 39.9996 95.7951 40.0971 95.8669 40.169C95.9388 40.2409 96.0363 40.2813 96.138 40.2813C96.239 40.2793 96.3353 40.2383 96.4068 40.1668C96.4783 40.0954 96.5193 39.999 96.5212 39.898V39.1315C96.5212 39.0298 96.4808 38.9323 96.409 38.8604C96.3371 38.7886 96.2396 38.7482 96.138 38.7482C96.0363 38.7482 95.9388 38.7886 95.8669 38.8604C95.7951 38.9323 95.7547 39.0298 95.7547 39.1315ZM103.397 39.8597C103.397 39.9613 103.437 40.0588 103.509 40.1307C103.581 40.2025 103.679 40.2429 103.78 40.2429C103.882 40.2429 103.979 40.2025 104.051 40.1307C104.123 40.0588 104.164 39.9613 104.164 39.8597V38.9092C104.164 38.8075 104.123 38.71 104.051 38.6382C103.979 38.5663 103.882 38.5259 103.78 38.5259C103.679 38.5259 103.581 38.5663 103.509 38.6382C103.437 38.71 103.397 38.8075 103.397 38.9092C103.366 39.2388 103.397 39.622 103.397 39.8597Z" fill="currentColor"/>
<path fill-rule="evenodd" clip-rule="evenodd" d="M147.841 95.3104C147.79 95.225 147.719 95.1537 147.634 95.1035C146.974 94.7815 143.387 94.9425 142.643 94.9732C142.774 74.8671 132.18 62.3266 116.804 58.7316C113.983 58.0724 113.975 58.0264 113.899 58.0724L113.377 56.639C114.849 56.593 116.053 55.4585 117.402 55.6885C118.421 55.8571 118.935 56.7616 119.939 57.1449C121.641 57.7888 124.668 56.7999 125.596 55.1826C126.071 54.3394 125.649 53.4655 125.948 52.883C126.485 52.4154 128.01 51.6642 128.447 51.12C129.344 50.0008 129.382 47.4943 128.976 46.1375C128.243 44.6022 127.244 43.2087 126.025 42.0212C124.699 40.7438 123.524 39.3191 122.522 37.7747C121.288 35.3141 121.242 31.9107 120.222 29.3428C119.099 27.0243 117.359 25.0593 115.194 23.6628C113.079 22.1691 110.53 21.4171 107.943 21.5242C105.528 21.6775 104.585 22.7047 103.458 23.0573C102.332 23.4099 102.094 23.0573 100.262 23.8621C99.5345 24.3053 98.8868 24.8676 98.3457 25.5255C98.1157 25.7708 98.131 25.7861 97.7401 25.8014C97.3191 25.7698 96.8963 25.7698 96.4753 25.8014C95.7576 25.9607 95.0712 26.2379 94.444 26.6216C90.1744 29.1818 91.3242 34.3329 89.7145 38.1196C88.6184 40.6951 85.5676 43.171 85.307 45.8616C85.2146 47.0987 85.4808 48.3362 86.0735 49.4259C87.9362 52.699 90.6114 50.1311 91.9988 52.1318C92.4357 52.7603 92.7653 53.3736 93.5778 53.4962C94.6127 53.6342 96.0231 52.814 96.8663 52.2084C97.0434 52.415 97.2441 52.6002 97.4641 52.7603C98.2114 53.2641 99.0138 53.6807 99.8557 54.0021L97.9087 56.7233C94.26 56.3094 88.6567 57.4898 85.0463 58.6013C84.916 57.6814 83.7816 50.0851 82.9231 49.7172C81.7349 49.196 69.2635 50.6447 68.5046 51.4649C67.9451 52.0628 68.9492 63.4458 70.0377 65.1475C70.1987 65.4081 70.7506 65.4157 71.0572 65.4234C69.2635 66.6499 67.5311 67.8916 66.9102 68.3439C66.4273 66.6729 63.8901 57.8348 62.9549 56.386C62.6866 55.9644 62.4414 55.9721 61.2072 56.386C60.5038 52.8763 59.6134 49.4066 58.5397 45.9919C58.9423 45.3301 59.264 44.6224 59.4979 43.8839C59.7836 42.7143 59.8253 41.4983 59.6205 40.3119C60.5557 40.6261 66.1437 42.1592 67.0482 41.7146C67.2912 41.5413 67.4714 41.2938 67.5618 41.0094C68.5506 38.8478 70.2446 31.4661 70.375 29.1282C70.4286 28.8288 70.3772 28.5201 70.2293 28.2543C69.3325 27.3192 57.2673 23.8468 56.2478 24.3067C55.6269 24.5903 53.9482 30.1017 53.7719 30.7532C52.3078 35.6667 53.0514 34.5859 52.2388 34.8695C51.3037 35.1991 50.4988 37.1691 50.1692 38.0813C49.8396 38.9934 49.4947 40.2199 49.8856 40.9404C49.7268 41.2335 49.663 41.5686 49.7028 41.8995C49.7426 42.2304 49.8842 42.5407 50.1079 42.7878C49.8641 43.0595 49.7052 43.3966 49.6507 43.7576C49.5962 44.1185 49.6486 44.4875 49.8013 44.8191C50.0236 45.5166 51.411 45.9765 52.1009 46.1758C51.5562 47.6436 51.1031 49.1438 50.7441 50.6677C50.1327 53.0324 49.644 55.4272 49.28 57.8424C49.0533 59.0161 48.9786 60.2141 49.0577 61.4068L47.8006 61.974C47.7523 61.9962 47.7113 62.0319 47.6828 62.0767C47.6542 62.1216 47.6393 62.1738 47.6397 62.227C47.6397 62.227 47.8773 71.5173 50.9357 79.2363C54.6304 88.5803 60.709 91.7077 69.961 88.2124C70.0444 88.9459 70.2249 89.665 70.4976 90.351C70.6356 90.5963 71.1032 90.6423 71.4174 90.6729C74.1387 90.762 76.8628 90.6776 79.5733 90.42L81.8729 104.984C81.252 106.778 74.2076 127.213 74.3073 129.114C74.3073 129.314 74.3839 129.467 74.7135 129.62C76.7448 130.563 95.9924 133.077 96.7206 130.977C96.9046 130.464 97.3492 127.19 97.4335 126.57L108.265 125.374L118.59 126.056C118.701 127.09 118.885 128.114 119.142 129.122C119.234 129.352 119.341 129.475 119.609 129.452C120.629 129.352 126.063 128.371 127.566 128.087C133.33 126.999 133.2 126.907 133.031 126.34C132.625 124.998 128.854 114.535 127.382 109.652C129.535 109.882 131.706 109.882 133.859 109.652C133.882 109.735 133.926 109.811 133.986 109.873C134.047 109.934 134.121 109.98 134.204 110.005C135.607 110.518 148.139 109.806 149.167 108.778C150.094 107.958 148.538 96.4756 147.841 95.3104ZM56.2631 24.6363C56.3474 24.506 56.3168 24.4523 56.9913 24.552C59.8045 24.9506 69.0029 27.9171 69.8001 28.6146C69.9534 30.37 67.6768 40.0053 66.7799 41.1704C66.1284 41.3927 61.8051 40.2889 61.1383 40.1126C56.0638 38.7865 56.2631 38.5795 55.1057 38.3112C54.5078 38.1043 54.4464 38.0966 54.4618 38.0123C54.4637 37.9933 54.4726 37.9757 54.4868 37.963C54.5009 37.9502 54.5194 37.9432 54.5384 37.9433C55.2283 37.9433 57.0757 37.8896 57.5279 37.3531C57.6277 37.2439 57.7022 37.1141 57.7461 36.9729C57.7899 36.8316 57.802 36.6825 57.7815 36.536C57.761 36.3895 57.7084 36.2494 57.6274 36.1256C57.5465 36.0019 57.4392 35.8975 57.3133 35.82C56.3281 35.4253 55.2985 35.1525 54.2471 35.0075C53.9329 34.9462 53.5496 34.8388 53.1663 34.7928C53.6952 32.4013 55.4429 25.9088 56.2631 24.6363ZM49.6786 61.1538V59.9657C49.7476 58.5093 50.4452 54.6843 50.6521 53.6342C50.9894 51.9325 51.066 51.5492 52.0472 47.8545C52.0472 47.7549 52.6374 46.1068 52.6374 46.1068C52.648 46.0782 52.6524 46.0477 52.6502 46.0173C52.6481 45.9868 52.6394 45.9572 52.6249 45.9304C52.6104 45.9035 52.5904 45.8801 52.5661 45.8616C52.5418 45.8431 52.5139 45.83 52.4841 45.8232C52.3998 45.8232 50.4068 45.3326 50.1845 44.6964C49.9622 44.0602 49.9162 43.2937 50.4758 42.9564C50.4964 42.9415 50.5132 42.9219 50.5247 42.8992C50.5363 42.8766 50.5423 42.8515 50.5423 42.8261C50.5423 42.8007 50.5363 42.7756 50.5247 42.753C50.5132 42.7303 50.4964 42.7107 50.4758 42.6958C50.2309 42.4947 50.066 42.2125 50.0112 41.9003C49.9563 41.5881 50.0151 41.2666 50.1769 40.9941C50.3532 40.6338 49.4103 40.8101 50.5295 38.2269C50.8131 37.5907 51.7713 35.636 52.4228 35.4214C52.9997 35.3651 53.582 35.4304 54.1322 35.613C55.0929 35.7644 56.0374 36.0056 56.953 36.3336C57.0112 36.3649 57.0615 36.4092 57.0998 36.4631C57.138 36.517 57.1634 36.579 57.1738 36.6443C57.1841 36.7096 57.1793 36.7764 57.1596 36.8395C57.14 36.9026 57.106 36.9603 57.0603 37.0081C56.7236 37.199 56.3546 37.3263 55.9718 37.3837C53.5573 37.859 53.9865 37.3301 53.6722 38.1503C52.7498 38.0961 51.8278 38.2617 50.9817 38.6332C50.6521 38.7022 50.7901 38.9168 51.0277 38.8785C52.0547 38.5419 53.1531 38.4863 54.2088 38.7175C54.8214 38.8294 55.4201 39.0067 55.9948 39.2464C56.516 39.4581 56.9787 39.792 57.3439 40.2199C57.4091 40.382 57.4335 40.5578 57.4148 40.7315C57.396 40.9053 57.3349 41.0718 57.2366 41.2164C57.0527 41.5 56.1635 41.3084 55.8262 41.2164C55.3663 41.0784 54.8834 40.9634 54.4311 40.8178C53.7949 40.6185 53.8639 40.5648 53.6646 40.5802C52.9615 40.6798 52.2739 40.8678 51.6179 41.1397C51.5994 41.1418 51.5816 41.1482 51.5658 41.1582C51.5501 41.1683 51.5369 41.1818 51.5272 41.1978C51.5174 41.2137 51.5115 41.2317 51.5098 41.2503C51.508 41.2689 51.5106 41.2876 51.5172 41.3051C51.5238 41.3225 51.5344 41.3383 51.548 41.351C51.5616 41.3638 51.578 41.3733 51.5958 41.3788C51.6137 41.3843 51.6325 41.3856 51.651 41.3827C51.6694 41.3798 51.687 41.3727 51.7023 41.362C52.2893 41.1965 52.8894 41.0811 53.496 41.0171C53.8409 41.0171 53.6186 41.0171 54.4848 41.362C54.8757 41.5077 55.2513 41.6226 55.6652 41.7606C55.9315 41.8519 56.2063 41.9161 56.4854 41.9522C56.976 42.4122 57.3286 43.4853 56.6694 43.6769C56.4104 43.7216 56.144 43.6896 55.9029 43.585C54.1475 43.0101 55.3356 42.5961 51.526 43.378C51.4948 43.3818 51.4663 43.3975 51.4463 43.4217C51.4264 43.446 51.4165 43.477 51.4187 43.5083C51.4187 43.7076 51.549 43.585 53.6569 43.5083C53.9118 43.4827 54.1686 43.4827 54.4235 43.5083C55.0827 43.8456 56.0638 44.4205 56.8227 44.1982C57.7502 43.8992 57.7195 42.8721 57.1216 42.1209C56.907 41.8603 56.884 41.9369 57.068 41.9063C57.2025 41.8917 57.3326 41.8494 57.45 41.7821C57.5674 41.7148 57.6696 41.624 57.7502 41.5153C57.9317 41.2649 58.0332 40.9654 58.0415 40.6563C58.0497 40.3471 57.9642 40.0427 57.7962 39.783L59.084 40.1662C59.3389 41.3535 59.3179 42.5834 59.0226 43.7613C58.9405 44.0488 58.8327 44.3284 58.7007 44.5968C58.1411 45.7772 57.9342 45.8156 58.0031 46.0379C59.0683 49.5013 59.946 53.0197 60.6323 56.5776C57.7425 57.5895 52.4458 59.9197 49.6786 61.1538ZM110.334 114.42C113.615 114.558 120.667 114.811 123.902 114.711C123.679 115.677 123.542 116.29 123.503 116.428C121.962 116.428 112.005 114.704 110.334 114.42ZM125.144 114.029C123.089 114.512 96.4217 113.47 94.1374 112.496C94.375 110.779 96.6133 101.128 97.0655 99.1584C99.0774 99.7743 101.17 100.084 103.274 100.078C104.041 100.477 105.306 101.167 106.065 101.527C105.98 102.179 105.773 103.719 106.233 104.179C106.693 104.639 117.279 108.525 126.562 109.614C126.187 111.115 125.713 112.59 125.144 114.029ZM96.8203 95.5787C96.4673 95.4716 96.1408 95.2914 95.8621 95.0498C95.6628 94.8352 95.7318 94.1836 95.8621 93.877C95.9334 93.728 96.0598 93.6126 96.2147 93.5551C96.4019 93.4737 96.6014 93.4245 96.8049 93.4094C96.8658 93.408 96.9248 93.3881 96.974 93.3522C97.0232 93.3163 97.0603 93.2663 97.0803 93.2088C97.1003 93.1513 97.1023 93.089 97.086 93.0304C97.0696 92.9717 97.0358 92.9194 96.9889 92.8805C96.5405 92.5028 96.2282 91.9885 96.0997 91.4165C96.0997 90.9949 96.2607 90.558 96.9352 90.1747C97.7018 90.236 100.001 92.137 101.067 91.0409C102.132 89.9447 100.875 87.3769 102.063 87.1622C103.251 86.9476 103.849 90.5196 104.056 90.9106C104.746 92.252 106.601 93.2102 107.659 94.314C107.02 96.5988 106.508 98.9173 106.126 101.259C104.593 100.439 103.458 99.7257 103.343 99.7257C101.741 99.672 97.4412 99.2274 96.322 98.0853C96.123 97.9315 95.9868 97.7106 95.9388 97.4637C95.8908 97.2168 95.9344 96.9609 96.0614 96.7439C96.1429 96.5998 96.2529 96.4738 96.3847 96.3737C96.5165 96.2735 96.6673 96.2013 96.8279 96.1613C96.8936 96.1452 96.9519 96.1074 96.9933 96.0539C97.0347 96.0005 97.0568 95.9346 97.0559 95.867C97.055 95.7994 97.0312 95.734 96.9884 95.6817C96.9456 95.6293 96.8863 95.5931 96.8203 95.5787ZM105.359 70.0533C103.935 69.917 102.505 69.8607 101.075 69.8846C100.891 69.8846 100.737 69.9766 100.684 70.1529C100.553 70.6435 98.384 86.5873 98.2767 87.3692C97.8168 79.7039 97.3415 71.6323 96.9889 65.7147C99.6564 69.9689 99.8864 70.3905 100.308 70.0916C101.729 68.9227 103.074 67.6629 104.332 66.3203C104.562 67.1711 104.93 68.5585 105.359 70.0533ZM112.373 67.3627C111.852 66.5962 111.338 65.8297 111.147 65.5461L113.623 59.3142L112.373 67.3627ZM114.159 58.563C117.058 59.1608 119.885 60.068 122.591 61.2688C122.476 61.6291 120.997 66.1516 119.226 71.548C118.413 71.4483 113.761 70.8811 112.327 70.7278L114.159 58.563ZM111.024 66.3969L112.235 68.2212L111.852 70.6741L110.664 70.5208C110.84 68.8575 110.963 67.2784 111.024 66.3969ZM132.188 74.4838C132.178 75.4818 132.081 76.477 131.897 77.4579C129.268 76.7834 106.333 71.1417 104.003 72.4678C102.838 73.1424 99.0049 88.8716 98.6369 90.2897L98.361 90.1517C99.5721 81.6355 101.182 70.4672 101.182 70.4365C103.796 70.1376 128.976 72.9891 132.188 74.4838ZM118.812 90.512C117.095 90.397 110.281 90.0597 108.847 91.0102C108.625 91.1635 108.533 91.1942 107.743 94.0303C106.724 92.9495 105.014 91.93 104.44 90.7266C104.179 90.1977 103.757 86.3344 101.971 86.6333C99.5644 87.0396 102.638 91.999 99.0815 90.466C99.3115 89.4925 103.083 73.2574 104.133 72.6595C106.356 71.3947 130.601 77.5653 133.667 78.4314C133.491 80.3018 131.237 90.282 130.824 92.1063C126.854 91.3436 122.843 90.8112 118.812 90.512ZM107.007 36.8931C107.437 37.1844 107.421 37.882 107.345 38.3879C106.808 41.8143 103.374 43.8916 100.99 40.6108C100.446 39.8443 100.024 37.4067 100.392 36.8701C100.638 36.5559 102.615 36.5405 103.014 36.5405C103.75 36.5482 106.624 36.6632 106.977 36.8931H107.007ZM97.8781 37.445C97.8781 38.8861 97.3952 41.2777 96.1151 41.9676C94.0531 43.0407 91.9605 41.339 91.9068 39.1237C91.8282 38.315 91.8669 37.4992 92.0218 36.7015L92.0984 36.6632C91.9758 36.4486 97.3645 36.3796 97.8474 36.8625C97.8638 37.0563 97.8638 37.2512 97.8474 37.445H97.8781ZM100.546 54.1324C101.872 54.5157 104.01 54.3317 105.037 53.2816C105.059 53.2588 105.071 53.2286 105.071 53.1973C105.071 53.1659 105.059 53.1357 105.037 53.1129C104.861 52.8983 105.037 53.3122 103.044 53.6112C101.052 53.9101 99.8481 53.6112 97.8321 52.3004C96.9054 51.4491 96.2115 50.3752 95.8161 49.1806C94.9907 47.1588 94.4739 45.0245 94.283 42.8491C95.0045 42.9672 95.7448 42.8461 96.391 42.5041C97.0183 42.1373 97.5042 41.5705 97.7708 40.8944C97.5121 41.7045 97.2997 42.5285 97.1345 43.3627C97.0987 43.4695 97.0933 43.5841 97.119 43.6938C97.1447 43.8035 97.2006 43.9039 97.2802 43.9836C97.8102 44.3075 98.4343 44.4426 99.0509 44.3668C99.069 44.3715 99.0879 44.3719 99.1062 44.3681C99.1245 44.3643 99.1417 44.3564 99.1565 44.3449C99.1712 44.3334 99.1832 44.3187 99.1914 44.3019C99.1997 44.2852 99.2039 44.2667 99.2039 44.248C99.2039 44.2293 99.1997 44.2109 99.1914 44.1941C99.1832 44.1773 99.1712 44.1626 99.1565 44.1511C99.1417 44.1397 99.1245 44.1317 99.1062 44.1279C99.0879 44.1241 99.069 44.1246 99.0509 44.1292C98.5961 44.0786 98.1573 43.9323 97.7631 43.6999C97.5868 43.5773 97.6634 43.6539 97.7171 43.401C97.7708 43.148 98.7672 39.4917 98.8209 39.2617C99.0585 39.2617 99.963 39.1391 99.963 38.9168C99.963 38.6945 99.2425 38.6332 98.9742 38.6485C98.9742 38.5488 99.0202 38.4645 99.0432 38.3879C99.0554 38.3574 99.055 38.3233 99.042 38.2931C99.0291 38.2629 99.0047 38.2391 98.9742 38.2269C98.9437 38.2147 98.9096 38.2151 98.8794 38.2281C98.8492 38.241 98.8254 38.2654 98.8132 38.2959C98.545 38.8171 98.7289 38.6255 98.3687 38.7175C98.507 38.0087 98.507 37.2799 98.3687 36.5712C97.9317 35.8967 95.3025 36.05 94.444 36.1036C94.8809 33.5357 96.5826 32.271 97.6251 30.2167C97.9172 29.7398 98.3063 29.3298 98.7673 29.0132C98.9972 28.9519 99.4495 29.5268 99.7254 29.6648C100.001 29.8027 100.262 30.5616 100.492 30.8222C101.215 31.6455 102.048 32.3652 102.968 32.9608C103.734 33.5051 104.93 33.5894 105.451 34.2869C105.672 34.8801 105.778 35.5094 105.766 36.1419C104.777 36.0806 100.653 36.0193 100.162 36.7245C99.7177 37.2917 99.9094 39.8826 100.561 40.8791C102.201 43.3627 104.723 43.516 106.693 41.2777C106.905 41.0135 107.085 40.7253 107.23 40.4192C108.701 42.7188 109.859 44.0909 109.913 46.7891C109.974 50.2078 109.008 55.8724 112.71 56.5853L113.347 58.3407C110.281 66.052 110.442 65.5691 110.442 65.6457C110.442 65.7224 110.296 67.9453 110.028 70.4902C108.556 70.3369 107.184 70.2066 105.965 70.1069C105.873 69.7926 104.731 65.73 104.754 65.6457C104.869 65.2624 104.294 64.5112 103.849 63.8444C102.182 61.4305 100.362 59.1262 98.3993 56.9456L100.546 54.1324ZM97.8474 57.1525C97.9777 57.3518 103.497 63.4228 104.171 65.6534C102.931 67.028 101.591 68.309 100.162 69.486C99.6488 68.8115 98.2613 66.5885 96.9429 64.5112C96.7053 60.5023 96.5443 57.7121 96.506 57.1296C96.9352 57.0989 97.4182 57.1219 97.8167 57.1525H97.8474ZM70.4746 64.8179C69.6008 63.2848 68.3896 53.3199 68.6733 51.7868C68.6733 51.6489 68.6733 51.6029 69.3171 51.4266C72.0613 50.7137 81.6889 49.8935 82.7008 50.2384C83.4673 51.7332 85.146 61.4911 84.7474 62.9935C83.9655 63.6221 72.7282 65.2088 70.4439 64.8179H70.4746ZM71.0112 90.0367C70.1297 88.3044 69.4781 77.1973 69.915 76.7757C70.5666 76.1472 82.8004 75.6106 83.9579 76.0629C84.7244 77.6726 85.8129 87.5608 85.3606 88.9023C84.3181 89.6841 72.8202 90.4506 70.9805 90.0367H71.0112ZM88.5111 77.1897C89.063 77.044 92.911 76.0629 93.3709 75.7869C93.7005 75.5953 94.0761 76.2162 87.6296 58.5246C88.3961 57.8194 95.0956 56.9149 96.1534 57.2445C96.1534 57.6661 97.1575 75.557 97.9471 89.9141C97.5715 89.7301 97.0272 89.4465 96.6823 89.6381C95.2412 90.4046 95.1492 91.6771 96.2147 92.9189C96.0157 92.9677 95.8309 93.0624 95.6752 93.1955C95.5194 93.3287 95.397 93.4964 95.3179 93.6854C95.195 93.9731 95.1428 94.286 95.1654 94.598C95.1881 94.9101 95.285 95.2121 95.4482 95.4791C95.6269 95.6502 95.8312 95.7924 96.0537 95.9007C95.8247 96.0541 95.644 96.2694 95.5325 96.5216C95.432 96.7388 95.3722 96.9726 95.3562 97.2114L88.5111 77.1897ZM107.59 124.891L97.5791 126.002C97.6251 125.634 98.7519 116.75 99.1122 113.738C101.197 113.922 103.711 114.083 106.402 114.228C106.846 119.755 107.628 123.572 107.559 124.891H107.59ZM108.119 124.83C108.226 123.082 106.785 114.32 106.777 114.244L107.544 114.282C110.15 114.765 116.865 115.953 117.593 116.076C117.839 118.544 118.452 124.293 118.597 125.473C107.168 124.738 108.403 124.799 108.081 124.83H108.119ZM148.791 108.426C148.025 109.039 136.764 110.066 134.442 109.56C133.545 107.82 132.909 96.7209 133.345 96.2993C134.005 95.663 146.238 95.1418 147.381 95.5864C148.101 97.1884 149.213 107.115 148.76 108.426H148.791Z" fill="currentColor"/>
<path fill-rule="evenodd" clip-rule="evenodd" d="M71.0266 102.792C70.9653 102.516 70.881 102.117 70.6587 102.025C69.8922 101.565 64.8407 101.473 63.9439 101.458C63.7446 97.8017 63.392 93.5781 62.8171 92.4437C62.4415 91.6771 37.6672 91.6005 36.8164 91.5928C36.8777 87.4689 36.8854 81.1833 36.8164 77.0287C37.8972 77.0287 43.2936 77.0287 44.0371 76.4155C44.9876 75.649 44.3514 65.4158 43.9221 63.3845C43.8608 63.1085 43.7688 62.7099 43.5542 62.618C42.435 61.9511 29.8793 61.7901 28.9901 62.503C28.5225 62.8939 28.3462 67.6847 28.3232 68.2903C26.5679 68.2903 15.7138 68.068 11.8351 68.16V61.8974C12.8393 61.8974 18.7339 62.0584 19.5004 61.4145C20.428 60.648 20.1213 48.1229 19.2398 47.617C18.3583 47.111 12.8546 46.9501 11.9041 46.9271C11.9041 45.8386 11.8198 43.0944 11.8121 43.0254C15.3612 42.8951 24.7129 43.1941 28.5685 43.1941C28.5685 44.3975 28.4995 48.6824 29.0054 49.7786C29.1281 50.0392 29.5957 50.1158 29.9023 50.1695C32.3398 50.5988 43.2092 50.8517 44.2747 49.9472C45.3402 49.0427 44.5967 37.5831 43.9758 36.349C43.9346 36.2602 43.8713 36.1837 43.7918 36.1267C42.6343 35.4445 30.0939 35.3601 29.2277 36.0117C28.7295 36.4333 28.5608 41.9216 28.5455 42.5809C24.6285 42.5809 15.4148 42.2819 11.7662 42.4122C11.7662 40.9328 11.6895 39.4381 11.6895 37.9663C12.778 37.9663 19.3548 37.8667 20.175 37.1461C20.9952 36.4256 20.175 24.8127 19.5158 23.5556C19.4748 23.4665 19.408 23.3917 19.3241 23.3409C18.159 22.6894 5.61858 22.8887 4.76006 23.6092C4.10851 24.1764 3.99353 35.6361 4.86738 37.4068C4.92758 37.5056 5.01942 37.5813 5.128 37.6214C6.00184 37.9893 10.0798 37.997 11.038 37.997C11.038 41.4234 11.1913 44.2059 11.2219 46.9424C10.4554 46.9424 5.22765 46.8274 4.64508 47.295C4.06252 47.7626 3.35731 59.2146 4.16984 61.0926C4.28482 61.3455 4.7524 61.4375 5.05901 61.4912C7.0905 61.7845 9.13888 61.9458 11.1913 61.9741V73.2881C10.4631 73.2881 5.47294 73.1961 4.91337 73.6483C4.3538 74.1006 3.61793 85.5679 4.43046 87.4459C4.54544 87.7065 5.01302 87.7908 5.31963 87.8521C7.80319 88.3274 18.6266 88.7413 19.6921 87.8521C20.7576 86.963 20.2057 75.4727 19.6231 74.2539C19.5816 74.1633 19.5184 74.0843 19.4391 74.0239C18.6036 73.518 12.7933 73.3494 11.7738 73.3264V68.8958C15.7444 68.7962 26.1539 69.0185 28.2542 69.0262C28.2542 70.3216 28.1316 75.2044 28.6835 76.3925C28.7336 76.4954 28.8214 76.575 28.9288 76.6148C29.9176 77.0671 35.061 77.159 36.1112 77.1667C36.2108 81.3366 36.2032 87.6375 36.1112 91.7308C25.809 91.6771 15.1236 91.7844 12.9696 92.2214C12.7396 92.2674 12.364 92.344 12.3487 92.666C12.3487 92.666 11.9348 99.2888 11.7432 101.565C11.0609 101.565 6.57674 101.565 6.0555 102.025C5.53426 102.485 4.95936 113.968 5.80255 115.823C5.91753 116.076 6.38511 116.16 6.69172 116.214C9.13695 116.643 19.9987 116.896 21.0642 115.991C22.1296 115.087 21.3784 103.604 20.7652 102.393C20.796 102.32 20.8058 102.24 20.7936 102.161C20.7815 102.083 20.7477 102.009 20.6962 101.949C19.8147 101.42 13.5215 101.374 12.479 101.366C12.663 99.0665 13.0616 92.666 13.0616 92.666C15.6831 91.8994 59.2911 91.9914 62.3418 92.7656C62.8094 93.8847 63.1084 97.7251 63.3537 101.397C62.5871 101.397 56.7615 101.351 56.1559 101.857C55.5504 102.363 55.0905 113.868 55.903 115.654C55.9568 115.757 56.0469 115.836 56.1559 115.877C57.5127 116.49 70.0608 116.766 71.1646 115.823C71.3544 115.593 71.4646 115.308 71.4789 115.01C71.8392 112.68 71.5249 105.091 71.0266 102.792ZM29.3887 36.1037C30.0709 35.5364 42.3047 35.9427 43.4392 36.4946C43.7239 37.7044 43.8882 38.9394 43.9298 40.1816C39.0163 39.6834 32.3782 40.0666 28.9901 40.1816C29.0054 39.7217 29.1281 36.2876 29.3887 36.0807V36.1037ZM28.9824 40.6032C34.5628 40.7795 41.1856 40.4882 43.9528 40.5189C44.0371 41.8756 44.336 48.2302 43.8378 49.403C43.2706 49.7939 38.8017 49.8629 38.1195 49.8706C36.4714 49.8706 31.0367 49.8706 29.4424 49.4106C28.8904 48.0692 28.9441 42.1133 28.9824 40.5802V40.6032ZM4.95936 23.6705C5.64157 23.0726 17.8984 23.1876 19.0175 23.6705C19.269 24.5249 19.4284 25.4038 19.4928 26.2921C14.5412 26.1461 9.58587 26.4024 4.67575 27.0586C4.68341 26.7827 4.73707 23.8698 4.95936 23.6705ZM5.36562 36.9698C4.74473 35.5824 4.66042 29.1282 4.67575 27.3192C5.31963 27.2426 19.2398 26.5527 19.5234 26.5527C19.6921 28.0858 20.29 35.2375 19.7534 36.5789C18.7263 37.3225 7.18997 37.4681 5.36562 36.9698ZM4.83672 47.341C5.53426 46.7814 17.7604 47.387 18.8872 47.9542C19.1379 49.098 19.2766 50.2636 19.3012 51.4343C19.3778 51.4343 8.46241 51.005 4.39213 51.1353C4.41513 50.6831 4.59909 47.525 4.83672 47.341ZM19.2858 87.2006C18.4426 87.7525 7.13631 87.6835 4.89804 86.9706C4.34614 85.5985 4.51477 79.3053 4.59143 77.7033C4.66808 77.7033 15.1466 78.5158 19.5311 78.0022C19.6078 79.405 19.8147 86.0048 19.2858 87.1929V87.2006ZM19.1019 74.2769C19.3514 75.4237 19.4926 76.5914 19.5234 77.7646C19.6001 77.7646 8.7077 77.3354 4.60676 77.458C4.64092 76.2258 4.77163 74.9981 4.99769 73.7863C5.05135 73.633 4.99769 73.6023 5.68757 73.5257C8.43175 73.2191 18.1207 73.7786 19.1019 74.2692V74.2769ZM4.67575 60.6403C4.13151 59.2682 4.30015 53.021 4.3768 51.3806C4.46878 51.3806 14.9166 52.1931 19.3165 51.6796C19.3931 53.09 19.6078 59.6515 19.0712 60.8779C18.0364 61.5525 6.52309 61.2305 4.67575 60.6403ZM20.8649 106.364C20.9569 107.79 21.2481 114.129 20.7499 115.332C19.9374 115.9 8.58505 116.014 6.35445 115.332C5.80255 113.999 5.8562 107.997 5.89453 106.395C10.8387 106.586 15.3305 106.364 20.8649 106.364ZM20.3513 102.424C20.6349 103.632 20.8017 104.864 20.8495 106.103C15.9744 105.613 9.10629 106.004 5.90219 106.149C5.90219 105.666 6.04784 102.24 6.30079 102.033C6.99067 101.466 19.2168 101.872 20.3513 102.424ZM29.1281 62.6026C29.8333 62.0124 42.0671 62.457 43.1786 62.9936C43.4701 64.2519 43.6395 65.5354 43.6845 66.8262C40.3577 66.6499 32.0792 66.121 28.7371 66.5349C28.7755 66.098 28.9058 62.8096 29.1281 62.6026ZM29.2047 75.8866C28.6452 74.5452 28.7065 68.4129 28.7525 66.8109C29.8333 66.7036 37.6519 67.1941 41.2853 67.1635C42.2128 67.1635 43.0483 67.1252 43.7228 67.1022C43.8071 68.4666 44.0908 74.6985 43.6002 75.8789C42.596 76.5918 31.0674 76.4768 29.2047 75.8866ZM56.2863 102.033C56.9761 101.466 69.2023 101.872 70.3444 102.424C70.6254 103.634 70.7897 104.869 70.835 106.111C66.0059 105.62 59.0151 106.011 55.8953 106.111C55.903 105.705 56.0333 102.263 56.2863 102.056V102.033ZM70.743 115.332C69.9075 115.9 58.5552 116.014 56.3476 115.332C55.788 114.006 55.8417 107.981 55.8877 106.387C61.0464 106.586 64.9174 106.387 70.8503 106.387C70.9423 107.797 71.2336 114.159 70.743 115.355V115.332Z" fill="currentColor"/>
</svg>
