<svg width="154" height="154" viewBox="0 0 154 154" fill="none" xmlns="http://www.w3.org/2000/svg">
<path d="M149.397 10.3338C149.339 8.88424 149.231 7.4355 149.131 5.98676C149.131 4.29502 147.73 3.93935 146.974 4.62923C141.46 9.81711 132.083 17.9538 126.987 22.4127C126.797 22.58 126.663 22.8006 126.601 23.0456C126.54 23.2906 126.553 23.5485 126.641 23.7854C126.729 24.0224 126.886 24.2273 127.092 24.3731C127.299 24.519 127.544 24.599 127.797 24.6027C127.762 24.7307 127.73 24.8603 127.702 24.9921C118.883 28.3083 109.894 31.1523 100.772 33.5121C98.8818 34.0058 93.8219 35.2299 93.188 35.384C93.3679 34.8751 93.7227 34.4467 94.1891 34.1752C96.4304 32.6091 96.967 32.8721 98.0279 31.7774C98.2668 31.5255 98.4102 31.1981 98.4333 30.8517C98.4563 30.5053 98.3577 30.1617 98.1544 29.8803C97.7075 29.3843 96.8329 29.3031 96.6665 28.7113C96.327 27.491 98.4449 25.6452 98.3345 24.0002C98.2088 22.1284 95.8049 19.5911 92.1509 19.0615C90.0699 18.7308 87.9457 18.7874 85.8853 19.2286C84.3382 19.5484 82.9229 20.3255 81.8227 21.4592C80.9572 22.3583 79.658 23.4077 79.221 24.602C78.9604 25.2918 78.873 26.0883 78.3012 26.4815C78.0728 26.6043 77.8214 26.6783 77.563 26.6989C77.3045 26.7195 77.0445 26.6862 76.7996 26.6011C74.178 25.9395 72.5936 23.2437 70.0878 22.0739C68.9727 21.5697 67.7389 21.3873 66.5256 21.5471C65.3123 21.7069 64.1678 22.2027 63.2213 22.9784C62.7885 23.4611 62.2481 23.8348 61.6437 24.0692C61.2718 24.1348 60.89 24.1177 60.5254 24.0194C57.6831 23.2897 55.7614 21.4369 53.0249 21.0544C51.7523 20.8815 50.4567 21.0198 49.2493 21.4575C48.0419 21.8951 46.9586 22.619 46.0924 23.5671C45.6673 23.9843 45.3436 24.4933 45.1461 25.0552C44.9487 25.617 44.8827 26.2167 44.9533 26.808C45.3366 28.4116 47.0666 29.2096 47.7941 29.4786C49.0205 29.9324 50.3834 30.2582 51.3784 31.1366C51.5385 31.2558 51.6592 31.4203 51.7248 31.6088C51.8651 32.0488 51.3807 32.452 50.9399 32.5547C50.4425 32.5942 49.9479 32.6641 49.459 32.764C49.4474 32.7662 49.4368 32.7723 49.429 32.7812C49.4212 32.79 49.4165 32.8013 49.4157 32.8131C49.4149 32.8249 49.4181 32.8366 49.4247 32.8464C49.4312 32.8563 49.4409 32.8637 49.4521 32.8675C50.6006 33.2804 51.8248 33.4407 53.041 33.3373C53.6482 33.266 54.2187 33.0089 54.6743 32.6011C55.1299 32.1934 55.4485 31.6549 55.5866 31.0592C55.6284 30.7049 55.6451 30.3481 55.6364 29.9914C55.7759 28.765 56.5923 29.0294 57.5995 29.7461C58.7161 30.5538 60.0061 31.0891 61.3665 31.3092C62.7269 31.5294 64.1199 31.4283 65.4342 31.014C66.4667 30.6836 67.0792 29.6174 68.1661 29.6174C68.4322 29.6177 68.6928 29.6928 68.9182 29.8342C69.1436 29.9756 69.3247 30.1775 69.4409 30.4169C69.5254 30.757 69.6277 31.0924 69.7475 31.4218C67.0406 31.6449 64.3852 32.2899 61.8775 33.3335C60.501 33.9126 59.277 34.8019 58.3009 35.932C57.3179 35.6997 56.2944 35.6997 55.3114 35.932C52.8585 36.5583 52.0782 38.7467 51.7026 40.3818C51.6996 40.4298 51.71 40.4777 51.7328 40.52C51.7556 40.5624 51.7898 40.5976 51.8315 40.6215C51.8732 40.6454 51.9208 40.6572 51.9689 40.6555C52.017 40.6537 52.0636 40.6386 52.1035 40.6117C53.5732 39.5576 55.1984 38.7393 56.9204 38.1864C56.238 39.9715 56.1813 41.9353 56.7594 43.7568C55.2478 44.1538 53.6028 44.5095 52.67 45.7827C51.8786 46.9161 51.4225 48.2494 51.3538 49.6299C51.0973 53.2354 51.5702 56.8555 52.7443 60.274C52.7539 60.3037 52.7678 60.3319 52.7857 60.3575C51.8344 60.8743 50.9131 61.4445 50.0262 62.0654C49.4258 62.3832 48.8181 62.6898 48.2034 62.9852C48.2057 62.9679 48.2057 62.9504 48.2034 62.9331C48.1856 62.6985 48.0947 62.4754 47.9434 62.2953C47.7922 62.1151 47.5882 61.987 47.3602 61.9289C46.6699 61.7519 45.961 61.658 45.2484 61.6491C40.8202 61.2168 40.929 61.1892 40.2552 61.1892C39.9744 61.1565 39.69 61.1971 39.4295 61.307C39.169 61.4169 38.9415 61.5923 38.7689 61.8162C38.7134 61.912 38.6796 62.0187 38.6698 62.1289C38.66 62.2392 38.6745 62.3502 38.7123 62.4542C38.7501 62.5582 38.8102 62.6527 38.8885 62.7309C38.9667 62.8091 39.0612 62.8693 39.1652 62.907C41.2264 64.2155 41.8044 63.8391 43.3428 64.9284C32.1829 68.5847 22.1789 66.8087 21.3127 66.9842C21.1541 67.0571 21.0076 67.1538 20.8781 67.2709C20.2236 66.7387 19.5334 66.2521 18.8123 65.8145C18.5602 65.6647 18.2681 65.5958 17.9756 65.6172C17.6831 65.6386 17.4042 65.7492 17.1765 65.934C16.6108 66.351 16.18 66.8707 15.6611 67.2969C13.537 69.0416 10.9255 69.8073 10.8611 71.1426C10.8251 71.8877 11.436 71.9314 11.7043 71.9505C14.0629 72.0701 15.7469 71.1296 19.0714 71.0629C19.283 71.0583 19.3152 71.0675 19.378 71.0384C19.4662 72.7577 21.1019 73.535 22.73 74.0493C34.7554 77.8697 49.4651 77.7555 64.5612 72.2004C65.1655 71.9129 65.7856 71.6598 66.4185 71.4423C63.9656 74.7591 63.7939 74.9101 63.4121 75.7479C61.8162 75.147 61.3724 74.8871 60.7178 74.6311C58.8669 75.3591 56.9582 75.9303 55.0117 76.3389C53.2869 76.7041 51.5401 76.956 49.7824 77.0932C50.4348 77.7716 50.0615 77.5278 56.2665 83.4769C57.7783 85.1237 59.5507 86.5107 61.5127 87.5824C62.8809 88.2887 64.3883 88.684 65.9271 88.7399C67.3689 88.6552 68.7586 88.1708 69.9407 87.341C72.2942 85.7254 74.41 83.7882 76.2262 81.5858C79.9339 77.1085 80.3885 77.0257 83.1158 71.9076C83.729 72.2909 89.2243 71.5129 92.2191 63.9924C92.9862 61.9422 93.6486 59.8543 94.2037 57.7368C95.3581 54.0207 96.1539 50.2025 96.5799 46.3346C100.885 45.2845 103.333 43.858 110.239 40.519C114.73 38.3715 119.037 35.8591 123.117 33.007C125.351 31.3882 127.42 29.5529 129.294 27.5278C129.326 27.4777 129.343 27.4189 129.341 27.3592C129.935 27.1205 130.454 26.725 130.842 26.2147C131.23 25.7045 131.472 25.0986 131.543 24.4617C131.835 24.4616 132.126 24.4824 132.415 24.5238C128.474 33.5152 119.579 45.2722 113.503 53.4894C95.4132 77.9272 69.0331 108.673 42.3831 123.036C41.7254 123.386 35.9036 126.758 35.5043 126.367L38.7766 129.698C31.9424 134.281 24.2034 137.342 16.0835 138.675C16.0145 138.681 15.9496 138.711 15.9003 138.759C15.8855 138.789 15.8779 138.822 15.8779 138.855C15.8779 138.888 15.8855 138.921 15.9003 138.951C16.1302 140.12 16.8967 140.302 20.6466 143.55C16.1501 146.129 11.2528 147.77 3.83276 148.636V148.794C13.6267 149.827 22.8787 146.937 27.3844 144.355C25.7854 142.965 23.6698 142.09 22.0624 140.691C27.3009 139.401 39.6098 136.085 46.8551 131.281C45.7727 130.182 43.1244 128.507 42.0328 127.408C42.4076 127.824 49.4781 123.927 50.2278 123.536C66.4583 114.958 80.4705 104.172 94.4244 90.5818C98.8879 86.2433 103.316 81.9791 107.482 77.3906C113.092 71.2093 125.779 56.1186 137.105 40.4224C139.605 37.128 141.886 33.673 143.934 30.0796C144.116 29.7147 144.366 29.763 144.517 30.1294C144.858 30.9619 145.158 31.7115 145.442 32.5056C145.537 32.7626 145.713 32.9815 145.944 33.129C146.175 33.2765 146.448 33.3446 146.721 33.3229C146.995 33.3012 147.253 33.1909 147.458 33.0088C147.663 32.8268 147.803 32.5828 147.856 32.314C149.168 25.0651 149.685 17.6947 149.397 10.3338ZM19.3864 70.613C17.787 70.5483 16.1869 70.7203 14.6378 71.1235C13.6797 71.3093 12.7069 71.4086 11.7311 71.4201C11.3632 71.381 11.4942 70.9755 11.6429 70.7923C12.5513 69.8165 13.2151 69.8993 16.3004 67.5338C16.8515 67.0547 17.5713 66.0299 18.2742 66.2307C18.6711 66.3981 19.0388 66.6276 19.3634 66.9106L20.5278 67.7254C19.956 68.6009 19.5678 69.5832 19.3864 70.613ZM43.7621 64.7934C43.5333 64.4159 43.1764 64.1332 42.7564 63.997C41.6305 63.6037 40.5476 63.0965 39.5247 62.4831C39.4205 62.4126 39.3009 62.3053 39.3224 62.1918C39.3507 62.0385 39.593 61.863 39.8382 61.8086C40.3135 61.7365 40.3334 61.7741 46.402 62.3735C47.0061 62.4325 47.5986 62.5268 47.6369 62.9522C47.6366 63.001 47.6493 63.0489 47.6739 63.091C47.6984 63.133 47.7338 63.1677 47.7764 63.1914C46.4688 63.7982 45.1289 64.333 43.7629 64.7934H43.7621ZM88.6425 26.109C89.4601 25.7265 90.2578 25.3028 91.0325 24.8396C91.3252 24.6966 91.651 24.6349 91.9757 24.661C92.3004 24.687 92.6121 24.7998 92.8783 24.9875C92.7834 25.0247 92.6992 25.0847 92.6331 25.1622C92.5671 25.2398 92.5212 25.3325 92.4997 25.4321C92.4983 25.485 92.5152 25.5367 92.5475 25.5785C92.5799 25.6204 92.6256 25.6498 92.6771 25.6619C92.7286 25.6739 92.7826 25.6679 92.8302 25.6447C92.8777 25.6216 92.9158 25.5828 92.9381 25.5348C92.9586 25.4934 92.9924 25.4601 93.0341 25.4403C93.0758 25.4204 93.123 25.4151 93.1681 25.4252C93.3012 25.4653 93.4223 25.5377 93.5207 25.636C93.5928 25.7092 93.6847 25.7598 93.7851 25.7816C93.8241 25.7837 93.8629 25.776 93.8981 25.7593C93.9333 25.7425 93.9637 25.7173 93.9867 25.6858L94.1101 25.7142C94.7909 26.9916 95.216 28.3896 95.3619 29.8297C95.4055 30.4388 95.3187 31.0502 95.1072 31.6231C94.8957 32.196 94.5644 32.7172 94.1354 33.1518C93.0692 34.0832 92.1655 33.9728 91.6657 34.8382C91.2671 35.4261 91.9608 35.1119 90.5105 35.1226C89.2111 35.1385 87.9312 34.8055 86.8043 34.1583C87.0687 34.0078 87.3493 33.8877 87.6406 33.8003C88.0593 33.6681 88.4209 33.3979 88.6662 33.0338C88.8186 32.6633 88.8307 32.2501 88.7005 31.8713C88.5703 31.4925 88.3066 31.1741 87.9587 30.9757C87.7207 30.8453 87.5097 30.6708 87.3371 30.4613C86.5859 29.2724 88.0783 27.4151 87.0504 26.0921C87.3 26.206 87.5707 26.2664 87.845 26.2693C88.1194 26.2722 88.3913 26.2176 88.6432 26.109H88.6425ZM84.1905 29.461C84.645 29.3031 85.5879 29.9493 85.8255 30.3095C86.1536 30.8032 87.1815 32.0948 87.183 32.5923C87.1579 32.7224 87.1057 32.8457 87.0297 32.9542C86.9538 33.0628 86.8558 33.1542 86.7422 33.2224C86.5491 33.3373 86.361 33.4602 86.1781 33.5911C86.0122 33.3996 85.8627 33.1944 85.7312 32.9778C85.959 32.745 86.1227 32.4571 86.2064 32.1423C86.2086 32.1342 86.2088 32.1258 86.2071 32.1176C86.2055 32.1094 86.2019 32.1018 86.1968 32.0952C86.1917 32.0886 86.1851 32.0832 86.1776 32.0796C86.1701 32.0759 86.1619 32.0741 86.1535 32.0741C84.2541 32.0733 83.4661 29.7109 84.1912 29.461H84.1905ZM70.5125 31.9246C71.4231 32.1546 71.5174 31.4593 78.489 32.0166C80.4345 32.511 82.5562 33.5366 84.182 33.5458C84.0441 34.0364 83.8693 35.2514 83.309 37.1945C81.022 36.6335 78.657 36.4612 76.3128 36.6848C76.2793 36.6492 76.2358 36.6246 76.1881 36.6142C76.1403 36.6038 76.0905 36.608 76.0453 36.6265C76 36.6449 75.9613 36.6765 75.9344 36.7173C75.9075 36.7581 75.8935 36.8061 75.8943 36.8549C75.9048 37.2427 75.9404 37.6293 76.0009 38.0124C75.0847 37.4464 74.2597 36.7447 73.5541 35.9313C73.505 35.8949 73.445 35.8762 73.384 35.8781C73.3229 35.8801 73.2643 35.9026 73.2176 35.942C72.1425 36.9208 70.8668 37.6531 69.4794 38.0878C68.092 38.5224 66.6265 38.649 65.1851 38.4585C65.1392 38.4586 65.0942 38.4707 65.0544 38.4935C65.0146 38.5163 64.9815 38.5492 64.9583 38.5887C64.9351 38.6283 64.9226 38.6732 64.922 38.7191C64.9215 38.7649 64.9329 38.8101 64.9551 38.8502C65.7968 40.0299 66.876 41.0205 68.1232 41.7584C68.2351 42.085 68.3353 42.4148 68.4237 42.748C68.4237 42.748 67.7921 42.7848 67.5276 42.7963C67.4818 42.8033 67.4387 42.823 67.4034 42.8531C67.3681 42.8831 67.3418 42.9225 67.3276 42.9666C67.3133 43.0108 67.3117 43.0581 67.3228 43.1031C67.3339 43.1482 67.3573 43.1893 67.3904 43.2217C70.2319 47.0383 70.8597 50.1037 71.8363 52.8463C71.9061 53.043 71.9291 53.2533 71.9036 53.4604C71.878 53.6676 71.8046 53.8659 71.6891 54.0398C71.3416 54.7192 70.7684 55.2563 70.0679 55.5591C69.7559 55.6242 69.2853 55.3291 69.05 55.198C66.7468 54.1162 64.5911 52.7451 62.6349 51.1178C60.7738 49.5956 59.2328 47.7199 58.1008 45.5988C57.4621 44.4476 57.0856 43.1695 56.9983 41.856C56.911 40.5424 57.115 39.2257 57.5957 38.0001C58.2403 37.841 58.8973 37.7374 59.5595 37.6905C60.6441 37.893 61.6807 38.2984 62.6149 38.8855C62.6661 38.9156 62.7266 38.9259 62.7849 38.9146C62.8432 38.9033 62.8953 38.8711 62.9316 38.824C62.9678 38.777 62.9856 38.7183 62.9817 38.6591C62.9777 38.5998 62.9522 38.544 62.91 38.5022C61.9902 37.2328 60.6212 36.5568 58.8037 36.0555C61.6376 33.1741 66.4859 32.2611 70.5125 31.9246ZM85.7917 41.4066L87.7847 44.4221C87.5394 45.0757 87.2809 45.725 87.009 46.3699C86.342 44.7662 85.3972 43.2928 84.2181 42.0175C84.5753 40.8677 84.9309 39.6972 85.2192 38.5244C86.187 39.5815 86.9757 40.7897 87.554 42.1011C87.9373 42.9366 87.8606 42.9895 88.1021 43.5514L88.0147 43.7966L86.2394 41.1138C86.22 41.0844 86.1949 41.0591 86.1657 41.0394C86.1366 41.0197 86.1038 41.0059 86.0692 40.9988C86.0347 40.9918 85.9991 40.9916 85.9646 40.9983C85.93 41.005 85.897 41.0185 85.8676 41.0379C85.8382 41.0573 85.813 41.0824 85.7932 41.1116C85.7735 41.1408 85.7598 41.1735 85.7527 41.2081C85.7457 41.2426 85.7455 41.2782 85.7522 41.3128C85.7589 41.3473 85.7723 41.3803 85.7917 41.4097V41.4066ZM82.9211 48.8565L84.4281 51.6344C83.4497 53.4385 82.3657 55.1834 81.1818 56.8599L79.6802 53.5638C80.0338 52.8959 80.3711 52.2195 80.692 51.5348L81.7031 53.3469C81.7377 53.4091 81.7957 53.4549 81.8642 53.4744C81.9327 53.4939 82.0061 53.4854 82.0683 53.4507C82.1305 53.416 82.1764 53.3581 82.1959 53.2896C82.2154 53.2211 82.2069 53.1477 82.1722 53.0855C81.1895 51.327 81.04 51.022 80.9664 50.9392C81.6563 49.4061 82.3998 47.4798 82.918 46.015L84.3514 48.8182C84.3672 48.8501 84.3891 48.8785 84.4159 48.9019C84.4428 48.9252 84.474 48.943 84.5077 48.9542C84.5415 48.9654 84.5772 48.9697 84.6126 48.967C84.6481 48.9643 84.6827 48.9545 84.7143 48.9383C84.746 48.9221 84.7741 48.8997 84.7971 48.8726C84.82 48.8454 84.8373 48.8139 84.848 48.78C84.8587 48.7461 84.8625 48.7103 84.8592 48.6749C84.8559 48.6395 84.8457 48.6051 84.829 48.5737L83.1618 45.3136C83.2691 44.9988 83.3749 44.6817 83.4791 44.3623L84.7416 46.5853C84.759 46.6159 84.7823 46.6429 84.8101 46.6645C84.8379 46.6862 84.8698 46.7021 84.9037 46.7115C84.9377 46.7208 84.9732 46.7234 85.0082 46.7191C85.0432 46.7147 85.077 46.7035 85.1076 46.6861C85.1383 46.6687 85.1652 46.6454 85.1869 46.6176C85.2085 46.5897 85.2245 46.5579 85.2338 46.5239C85.2432 46.49 85.2458 46.4545 85.2414 46.4195C85.237 46.3845 85.2258 46.3507 85.2084 46.3201L83.7053 43.6671C83.7397 43.5575 84.0349 42.6124 84.0349 42.6124C85.1844 43.9187 86.0946 45.4175 86.7239 47.0398C86.1214 48.4135 85.4601 49.7597 84.7401 51.0787L83.3925 48.5982C83.3761 48.5665 83.3536 48.5383 83.3262 48.5154C83.2988 48.4925 83.2671 48.4753 83.233 48.4648C83.1989 48.4543 83.163 48.4507 83.1274 48.4543C83.0919 48.4578 83.0574 48.4684 83.0261 48.4855C82.9947 48.5025 82.967 48.5256 82.9447 48.5535C82.9224 48.5814 82.9058 48.6134 82.8961 48.6478C82.8863 48.6821 82.8835 48.7181 82.8878 48.7535C82.8921 48.789 82.9034 48.8232 82.9211 48.8542V48.8565ZM75.0734 54.8071C75.1096 54.7667 75.1441 54.7238 75.1768 54.6783C75.2443 54.539 75.2662 54.382 75.2394 54.2295C75.2125 54.077 75.1384 53.9369 75.0274 53.829C74.8958 53.738 74.743 53.6822 74.5837 53.6671C74.4244 53.6519 74.2639 53.6778 74.1175 53.7424C73.8784 53.8004 73.6337 53.832 73.3877 53.8367C73.4847 53.757 73.565 53.659 73.6241 53.5482C73.6831 53.4375 73.7198 53.3162 73.7319 53.1912C73.7066 53.0459 73.6316 52.9139 73.5198 52.8177C73.4079 52.7216 73.2662 52.6672 73.1187 52.6639C73.3783 51.8534 73.6236 51.0381 73.8546 50.2179C74.9645 50.9077 75.081 50.9997 75.994 51.6505C76.2498 51.8885 76.5429 52.083 76.8617 52.2262C76.0844 54.2613 76.0783 54.2866 75.4628 55.6219C75.4367 55.684 75.2788 56.137 75.2221 56.2666C75.1309 56.2127 75.0451 56.15 74.966 56.0795C74.953 56.0229 74.9318 55.9684 74.9032 55.9178C75.5371 55.5368 75.4267 54.9504 75.0734 54.8071ZM74.3467 56.2635L74.3375 56.2727C73.8889 56.4698 73.3993 56.5554 72.9105 56.5221C72.4217 56.4889 71.9482 56.3378 71.5304 56.0818C71.32 55.9916 71.1244 55.8702 70.9502 55.7216C71.217 55.527 71.4541 55.2946 71.6539 55.0317C72.0096 54.6495 72.2622 54.1831 72.3882 53.6765C72.5736 53.4273 72.8391 53.2498 73.1402 53.1736C73.0995 53.2503 73.2168 53.2411 72.9447 53.4687C72.7671 53.5973 72.6423 53.7861 72.5936 53.9999C72.5847 54.0378 72.5842 54.0772 72.5922 54.1153C72.6002 54.1534 72.6165 54.1892 72.6399 54.2203C72.6633 54.2514 72.6933 54.277 72.7277 54.2952C72.7621 54.3134 72.8 54.3238 72.8389 54.3257C73.3434 54.3729 73.8522 54.3279 74.3406 54.1931C74.4839 54.1877 74.7552 54.1164 74.628 54.374C74.537 54.5351 74.3983 54.6639 74.2309 54.7427C74.1906 54.746 74.1518 54.7593 74.1179 54.7813C74.0841 54.8034 74.0562 54.8336 74.037 54.8691C74.0177 54.9047 74.0076 54.9445 74.0076 54.9849C74.0077 55.0253 74.0177 55.0651 74.037 55.1007C74.037 55.4372 74.6234 55.2593 74.8143 55.2869C74.6913 55.4379 74.5231 55.5454 74.3344 55.5936C73.9994 55.6089 73.9144 55.8427 74.001 56.0067C74.0738 56.1485 74.2769 56.1914 74.3467 56.2681V56.2635ZM73.1846 47.7757C72.993 47.7182 70.2825 47.1556 70.2059 47.1395C69.8962 46.492 69.561 45.8566 69.2002 45.2331C69.2281 44.9038 69.216 44.5723 69.1642 44.2458C69.749 44.3225 70.3469 44.3807 70.9272 44.4344C72.1966 44.5517 73.1885 44.669 74.5736 44.8422C74.5174 45.1125 74.4604 45.3816 74.4026 45.6493C73.6263 45.4941 72.8423 45.3797 72.054 45.3067C72.0062 45.3027 71.9586 45.3168 71.9207 45.3462C71.8828 45.3756 71.8573 45.4181 71.8492 45.4654C71.8411 45.5126 71.8511 45.5612 71.877 45.6015C71.903 45.6418 71.9432 45.6709 71.9896 45.6831C72.2908 45.7597 73.0152 45.8417 74.2953 46.1261C73.7833 48.4349 73.1517 50.6824 72.4557 52.9666C72.4219 52.9958 72.3897 53.0249 72.3583 53.054C72.2675 52.5206 72.0972 52.0039 71.8532 51.521C71.4776 50.1883 71.0015 48.8861 70.4289 47.6255C70.8222 47.7236 71.2162 47.8125 71.6079 47.9037C72.1072 48.0441 72.6139 48.1569 73.1256 48.2418C73.1831 48.2416 73.2386 48.2205 73.2817 48.1824C73.3249 48.1442 73.3526 48.0917 73.3598 48.0347C73.3671 47.9776 73.3533 47.9198 73.321 47.8722C73.2888 47.8245 73.2403 47.7902 73.1846 47.7757ZM68.3869 41.1628C69.3367 41.2908 70.2926 41.3676 71.2507 41.3928C71.5419 41.4028 73.1118 41.3713 74.1788 41.2525C74.3398 41.2525 75.0419 41.0931 75.2627 41.0724C75.2182 41.4948 75.1465 41.914 75.0481 42.3272C74.9568 42.8507 74.7047 44.2052 74.6732 44.3593C73.4023 44.206 70.3891 43.848 69.1059 43.8112C68.9561 42.9065 68.7152 42.0192 68.3869 41.1628ZM68.7778 44.531C68.5223 44.1222 68.2561 43.7169 67.9791 43.3153L68.5532 43.2838C68.6457 43.6947 68.7206 44.1096 68.7778 44.5287V44.531ZM67.822 40.9643C67.835 40.995 67.8473 41.0264 67.8595 41.0571C67.4133 40.7239 66.99 40.361 66.5925 39.9709C66.2805 39.6637 65.9869 39.3384 65.7132 38.9966C67.3502 39.1262 68.9944 38.8634 70.5094 38.2301C70.478 38.4539 70.537 38.4892 70.6351 38.6448C70.1967 39.0212 70.3101 39.4113 70.7402 39.6145C70.9334 39.6856 71.1396 39.7143 71.3449 39.6988C71.5826 39.6934 71.9091 39.711 72.0302 39.9157C72.1069 40.0414 71.8164 40.1357 71.6585 40.1012C71.1572 39.9916 71.069 39.8161 70.9119 39.918C70.8773 39.9421 70.8504 39.9757 70.8347 40.0148C70.8189 40.0538 70.8148 40.0966 70.8229 40.138C70.8229 40.2913 71.2062 40.6585 71.7006 40.6585C71.8156 40.6565 71.93 40.6418 72.0417 40.6148C72.0624 40.6301 72.2387 40.7681 72.2602 40.778C72.1536 40.8072 72.0463 40.834 71.939 40.8601C70.6469 40.8822 69.355 40.804 68.0749 40.6263C68.0334 40.6238 67.9919 40.6316 67.9541 40.649C67.9163 40.6665 67.8834 40.693 67.8583 40.7263C67.8333 40.7595 67.8169 40.7984 67.8105 40.8396C67.8042 40.8807 67.8081 40.9228 67.822 40.962V40.9643ZM80.1899 42.7128C80.1586 42.7101 80.1271 42.7142 80.0975 42.7247C80.0678 42.7352 80.0408 42.7518 80.0181 42.7736C79.9954 42.7953 79.9776 42.8217 79.9658 42.8508C79.9541 42.88 79.9487 42.9113 79.95 42.9427C79.9519 42.9861 79.9678 43.0277 79.9955 43.0612C80.0232 43.0947 80.0611 43.1182 80.1033 43.1282C80.7932 43.3229 81.2976 43.5115 81.7606 43.684C82.2095 43.7867 82.6319 43.9829 83 44.2596C82.9142 44.5182 82.8268 44.7763 82.7379 45.0338L81.4141 44.4873C81.3811 44.4718 81.3454 44.4632 81.3091 44.4619C81.2727 44.4607 81.2364 44.4668 81.2025 44.48C81.1686 44.4931 81.1377 44.513 81.1116 44.5385C81.0856 44.5639 81.065 44.5944 81.0511 44.628C81.0372 44.6616 81.0303 44.6977 81.0307 44.7341C81.0312 44.7705 81.039 44.8064 81.0537 44.8397C81.0685 44.873 81.0898 44.9029 81.1164 44.9277C81.143 44.9525 81.1744 44.9717 81.2087 44.984L82.5616 45.5428C81.6663 48.1942 80.5621 50.7704 79.2594 53.2472L78.0812 52.6884C78.0494 52.6733 78.0148 52.6646 77.9796 52.6629C77.9444 52.6611 77.9092 52.6663 77.876 52.6782C77.8428 52.69 77.8122 52.7083 77.7861 52.7319C77.76 52.7556 77.7387 52.7842 77.7236 52.816C77.7085 52.8479 77.6999 52.8824 77.6981 52.9176C77.6963 52.9528 77.7015 52.988 77.7134 53.0213C77.7252 53.0545 77.7435 53.085 77.7672 53.1111C77.7908 53.1373 77.8194 53.1585 77.8513 53.1736L79.0011 53.7201C78.3981 54.825 77.7511 55.9043 77.0602 56.958C76.7348 56.5448 76.3686 56.1655 75.9671 55.8258C77.1491 53.2196 79.1567 47.7151 79.6465 44.3217C79.6838 44.3007 79.7157 44.2713 79.7398 44.2358C79.7639 44.2004 79.7795 44.1599 79.7853 44.1175C79.7912 44.0751 79.7872 44.0318 79.7736 43.9912C79.76 43.9506 79.7372 43.9136 79.707 43.8833C78.7626 42.9864 77.7698 42.1419 76.7329 41.3537C76.7329 41.2004 76.7329 41.0417 76.7252 40.8938C79.0799 41.0129 81.3975 41.53 83.5795 42.423C83.519 42.6223 83.243 43.5008 83.1656 43.7415C82.2086 43.3044 81.2122 42.9592 80.1899 42.7105V42.7128ZM77.5945 47.6952C77.1544 47.331 76.6752 47.0169 76.1657 46.7585C75.7568 46.5067 75.3276 46.2895 74.8825 46.1093C74.9653 45.7321 75.0452 45.3545 75.1224 44.9763C75.7055 45.2851 76.2727 45.6231 76.8218 45.9889C77.4005 46.3726 77.9548 46.792 78.4814 47.2445C78.2959 47.919 77.8313 49.5019 77.4803 50.536C76.5008 49.7341 75.4469 49.0277 74.3329 48.4265C74.4898 47.8092 74.6387 47.1898 74.7798 46.5684C74.907 46.6366 75.035 46.7033 75.163 46.77C75.9106 47.1615 76.6332 47.5988 77.327 48.0793C77.3776 48.1058 77.4362 48.1129 77.4918 48.0993C77.5473 48.0858 77.5961 48.0525 77.6288 48.0056C77.6616 47.9587 77.6762 47.9015 77.6699 47.8447C77.6636 47.7879 77.6367 47.7353 77.5945 47.6968V47.6952ZM77.3377 50.9415C77.2311 51.2443 77.1192 51.5463 77.005 51.8475C76.054 51.0781 75.0375 50.3933 73.9673 49.8009C74.0516 49.4943 74.1338 49.1877 74.2141 48.881C77.0847 50.6678 76.6585 50.4954 77.3377 50.943V50.9415ZM79.2364 44.1707C78.9903 45.0139 78.837 45.8479 78.6278 46.6911C77.5783 45.8368 76.4322 45.1087 75.2129 44.5218C75.3059 44.0506 75.394 43.5789 75.4773 43.1068C76.6187 43.664 78.3441 44.7839 78.3618 44.7931C78.3913 44.8124 78.4244 44.8256 78.459 44.832C78.4937 44.8385 78.5293 44.8381 78.5637 44.8308C78.5982 44.8235 78.6309 44.8095 78.66 44.7895C78.6891 44.7696 78.7139 44.7441 78.7332 44.7146C78.7524 44.685 78.7656 44.652 78.7721 44.6173C78.7785 44.5827 78.7781 44.5471 78.7708 44.5126C78.7635 44.4781 78.7495 44.4454 78.7295 44.4163C78.7096 44.3873 78.6841 44.3624 78.6546 44.3432C77.6595 43.6927 76.6307 43.0955 75.5724 42.5541C75.6419 42.1371 75.7083 41.7204 75.7717 41.3039C76.9936 42.176 78.1515 43.1346 79.2364 44.1722V44.1707ZM75.8437 40.7512C75.8384 40.7168 75.8262 40.6837 75.8076 40.6542C75.7891 40.6247 75.7647 40.5992 75.736 40.5795C75.7073 40.5597 75.6748 40.5461 75.6406 40.5394C75.6064 40.5326 75.5712 40.533 75.5371 40.5404C74.998 40.6278 74.4573 40.6978 73.9151 40.7505C74.7029 40.4349 75.4506 40.0273 76.1427 39.5363C76.1833 40.0161 76.2193 40.4952 76.2592 41.0203C76.1235 40.9329 75.9848 40.8394 75.8437 40.7528V40.7512ZM75.7333 39.1775C74.7992 39.8365 73.7634 40.338 72.6672 40.6623C72.6719 40.6466 72.6742 40.6304 72.6741 40.614C72.6741 40.4607 72.6741 40.4477 72.4541 40.2982C72.7324 39.8459 72.4265 39.4274 71.9497 39.2741C71.6799 39.1875 71.0652 39.2741 70.8766 39.1208C70.9443 39.0398 71.0215 38.9672 71.1066 38.9046C71.1291 38.9277 71.157 38.9449 71.1877 38.9547C71.2185 38.9645 71.2511 38.9665 71.2829 38.9606H71.2967C71.4607 38.9966 71.591 38.8073 71.5588 38.6387C71.5441 38.5749 71.5131 38.516 71.4688 38.4679C71.4244 38.4198 71.3682 38.384 71.3059 38.3642C71.2276 38.3479 71.1462 38.3551 71.0721 38.3849C71.0606 38.3658 71.0276 38.3175 71.0146 38.2991C70.9819 38.2081 70.9155 38.1332 70.8291 38.0898C71.7346 37.6761 72.5795 37.1408 73.3402 36.4985C74.1359 37.3392 75.0476 38.0619 76.0476 38.6448C76.0591 38.7329 76.0706 38.8188 76.0821 38.9169C75.9633 38.9997 75.846 39.0932 75.7333 39.1775ZM75.7579 56.2896C76.7061 57.286 76.9981 57.631 76.9981 57.631C76.9981 57.631 77.7984 59.1104 77.9777 59.4875C77.0646 58.6892 76.1963 57.8408 75.3769 56.9465C75.4934 56.8928 75.5034 56.83 75.7556 56.2896H75.7579ZM77.3775 57.4524C78.0838 56.3792 78.7456 55.2806 79.3629 54.1563L80.8116 57.3351C80.1406 58.1662 79.4105 58.9478 78.627 59.6738C78.5833 59.5964 77.5378 57.7199 77.3752 57.4524H77.3775ZM84.0379 40.8601C83.1457 40.4699 81.0967 39.8184 80.4674 39.6436C80.417 39.6325 80.3642 39.6408 80.3197 39.6669C80.2751 39.693 80.242 39.7349 80.2269 39.7842C80.2118 39.8336 80.2159 39.8869 80.2383 39.9334C80.2607 39.9799 80.2998 40.0163 80.3479 40.0353C82.7709 40.8325 82.6214 40.8915 83.8961 41.3552C83.8425 41.54 83.7888 41.7255 83.7344 41.9102C81.5235 40.9287 79.1311 40.4226 76.7122 40.4247C76.7076 40.3319 76.6087 38.7981 76.6011 38.7053C78.3704 38.5961 80.1465 38.717 81.8847 39.0649C81.9435 39.0662 82.0005 39.0451 82.0441 39.0057C82.0877 38.9664 82.1146 38.9118 82.1193 38.8533C82.1245 38.7996 82.1091 38.746 82.0762 38.7033C82.0433 38.6606 81.9954 38.632 81.9422 38.6233C81.0022 38.3281 80.0216 38.182 79.0363 38.1902C78.2076 38.1362 77.3756 38.1562 76.5505 38.25C76.483 37.6981 76.5137 37.6468 76.4378 37.1631C79.2757 36.9533 82.1274 37.2916 84.8374 38.1596C84.5753 38.9767 84.2962 39.9425 84.0356 40.8601H84.0379ZM58.1721 37.1462C58.2535 37.0548 58.304 36.9401 58.3167 36.8184C58.3293 36.6967 58.3034 36.5741 58.2426 36.4678C58.9203 36.6419 59.5846 36.8645 60.2303 37.134C59.3588 37.1427 58.4911 37.2489 57.6432 37.4505C57.6463 37.4364 57.6478 37.422 57.6478 37.4076V37.3885C57.8477 37.3799 58.0361 37.2928 58.1721 37.1462ZM52.3932 39.7946C53.1521 37.3371 54.7273 36.0386 57.3067 36.3046C57.4596 36.4368 57.6212 36.5587 57.7904 36.6694C57.8977 36.7507 57.762 36.8779 57.6432 36.8756C57.3857 36.8488 57.3765 36.7607 57.0706 36.6526C57.0207 36.6377 56.9673 36.6389 56.9181 36.656C56.8689 36.673 56.8263 36.7051 56.7962 36.7476C56.7744 36.7876 56.7636 36.8327 56.7649 36.8782C56.7663 36.9237 56.7797 36.9681 56.8039 37.0067C56.921 37.157 57.0816 37.2675 57.2638 37.3233C57.2699 37.4091 57.24 37.4582 57.299 37.5364C55.5537 38.0224 53.8975 38.7848 52.3932 39.7946ZM55.5567 59.7359C53.6189 59.913 54.1156 59.8294 53.6404 59.8808C53.4847 59.9105 53.3247 59.9105 53.169 59.8808C53.057 59.684 52.9792 59.4696 52.939 59.2468C52.5834 58.0927 52.3017 56.917 52.0958 55.7269C51.6779 53.407 51.6613 51.0326 52.0468 48.707C52.1948 47.5925 52.6992 46.5557 53.4848 45.7513C54.4123 44.9081 55.7606 44.6483 56.9503 44.3256C58.6957 49.2152 63.7517 53.2986 68.4482 55.605C64.4556 57.7956 60.0789 59.198 55.5567 59.7359ZM83.3312 62.9246C81.8352 62.9051 80.3452 62.7301 78.8853 62.4026C75.0093 61.3744 71.5573 59.1477 69.0224 56.0404C68.9997 55.9803 68.9805 55.9188 68.9649 55.8565C69.2371 56.0411 69.556 56.1447 69.8847 56.1554C70.0902 56.1591 70.2936 56.1128 70.4772 56.0205C70.804 56.3298 71.1906 56.569 71.6132 56.7234C72.4372 57.1289 73.3882 57.192 74.2585 56.8989C74.3768 56.8629 74.4921 56.8178 74.6035 56.764C75.6923 58.0271 76.8707 59.2101 78.1295 60.3039C78.1391 60.3458 78.1591 60.3846 78.1875 60.4168C78.216 60.449 78.252 60.4736 78.2924 60.4883C78.3328 60.503 78.3762 60.5074 78.4187 60.501C78.4612 60.4946 78.5015 60.4777 78.5358 60.4518C81.1083 58.5056 82.7992 55.5537 84.2924 52.9475C85.0099 51.6559 86.5682 48.8236 87.2765 47.2667C87.8043 46.1119 88.2266 44.9118 88.5382 43.6809C88.5778 43.6354 88.5978 43.5762 88.5942 43.5161C88.4954 43.0005 88.3229 42.5017 88.0821 42.0352C87.4657 40.5159 86.5314 39.1461 85.3418 38.0178C85.3809 37.8438 85.1624 37.7073 85.0582 37.6813C84.6739 37.5571 84.2858 37.4429 83.8938 37.3386C84.2663 36.0909 84.5264 34.8123 84.6711 33.5182C84.9389 33.4776 85.1948 33.3798 85.4215 33.2316C85.5271 33.4574 85.658 33.6706 85.8117 33.867C85.6839 33.9692 85.559 34.0752 85.4369 34.1851C85.2292 34.3796 85.0934 34.6386 85.0517 34.92C85.0099 35.2014 85.0646 35.4887 85.2069 35.735C85.432 35.9821 85.7305 36.1504 86.0585 36.2149C86.2574 36.2972 86.4742 36.3267 86.6878 36.3007C86.9015 36.2746 87.1048 36.1939 87.2781 36.0662C87.2869 36.0593 87.2934 36.0498 87.2967 36.0391C87.3 36.0283 87.2998 36.0168 87.2963 36.0062C87.2928 35.9955 87.286 35.9862 87.277 35.9795C87.268 35.9728 87.2571 35.9691 87.2459 35.9688C87.0298 35.9711 86.8168 35.9178 86.6273 35.814C86.4377 35.7102 86.278 35.5595 86.1635 35.3763C86.1182 35.2153 86.1155 35.0452 86.1558 34.8829C86.1962 34.7205 86.2781 34.5714 86.3935 34.4503C87.4281 35.1299 88.6282 35.5152 89.8651 35.5649C90.3863 35.5784 90.906 35.628 91.4204 35.7136C91.4204 35.7136 91.7124 36.2141 91.7408 36.2502C91.5798 36.3607 91.4262 36.4815 91.2809 36.612C91.1816 36.7377 91.1151 36.8862 91.0875 37.0441C91.0598 37.2019 91.0719 37.3642 91.1225 37.5162C91.1731 37.6683 91.2608 37.8053 91.3775 37.9151C91.4943 38.0249 91.6365 38.1039 91.7914 38.145C92.876 45.5804 91.6067 53.5607 88.0132 61.9128C86.6407 62.8397 84.9639 63.202 83.3312 62.9246ZM128.25 27.8045C121.524 34.6826 112.434 38.8234 103.882 42.9673C101.572 44.1524 99.1357 45.0744 96.6198 45.716C96.7152 43.955 96.6526 42.1891 96.4327 40.4392C96.4328 40.3877 96.4182 40.3372 96.3906 40.2936C96.363 40.2501 96.3236 40.2153 96.2769 40.1933C96.2303 40.1714 96.1784 40.1632 96.1272 40.1696C96.0761 40.1761 96.0278 40.1971 95.9881 40.23C95.9422 40.2609 95.9058 40.3041 95.8832 40.3546C95.8606 40.4051 95.8526 40.461 95.8601 40.5159C96.8137 47.4699 94.5202 54.9543 92.2682 62.1804C91.6163 64.3487 90.5718 66.3789 89.1867 68.17C87.854 69.8637 85.9374 70.9993 83.8118 71.3549C89.9279 60.9301 94.4949 49.0627 92.0988 37.311C92.0916 37.2774 92.0757 37.2462 92.0525 37.2207C92.0293 37.1953 91.9998 37.1764 91.9669 37.1662C91.9338 37.1483 91.8963 37.1401 91.8587 37.1424C91.8211 37.1446 91.7849 37.1574 91.7542 37.1791C91.7234 37.2009 91.6993 37.2308 91.6847 37.2654C91.67 37.3001 91.6653 37.3382 91.671 37.3754C91.4587 36.9561 91.8949 36.8319 92.1432 36.5905C92.4197 36.7199 92.7234 36.7805 93.0284 36.7671C93.3334 36.7538 93.6306 36.6669 93.8947 36.5138C93.9049 36.5078 93.9128 36.4986 93.9173 36.4876C93.9218 36.4767 93.9225 36.4646 93.9195 36.4531C93.9165 36.4417 93.9098 36.4315 93.9005 36.4242C93.8912 36.4169 93.8798 36.4129 93.8679 36.4127C93.7098 36.401 93.5599 36.3376 93.4413 36.2323C93.3228 36.1271 93.2421 35.9857 93.2118 35.8301C113.767 31.3766 127.227 25.5379 127.69 25.5862C128.162 26.0466 128.512 26.6161 128.711 27.2442C128.688 27.4305 128.405 27.642 128.248 27.8045H128.25ZM130.845 25.3118C130.56 25.9825 130.025 26.5158 129.353 26.7981C129.29 26.828 129.227 26.8579 129.165 26.8893C128.912 26.2888 128.585 25.7223 128.191 25.2029C128.255 24.8332 128.348 24.469 128.468 24.1137C128.55 23.9366 128.681 23.787 128.846 23.6829C129.011 23.5789 129.202 23.5249 129.397 23.5275C129.592 23.5301 129.782 23.5892 129.944 23.6975C130.106 23.8059 130.233 23.959 130.31 24.1382C130.343 24.1943 130.366 24.2558 130.377 24.3199C130.285 24.3732 130.179 24.4 130.073 24.3973C129.966 24.3946 129.862 24.3625 129.773 24.3045C129.726 24.2802 129.673 24.2695 129.621 24.2737C129.568 24.2778 129.517 24.2966 129.475 24.328C129.432 24.3593 129.399 24.402 129.38 24.4511C129.36 24.5002 129.355 24.5538 129.364 24.6058C129.4 24.7774 129.396 24.9548 129.354 25.1249C129.312 25.295 129.232 25.4534 129.12 25.5885C129.083 25.6478 129.07 25.7186 129.082 25.7873C129.094 25.8559 129.132 25.9176 129.187 25.9603C129.242 26.003 129.311 26.0237 129.381 26.0185C129.45 26.0132 129.516 25.9824 129.564 25.9319C129.801 25.6547 129.938 25.3059 129.952 24.9415C130.095 24.9578 130.24 24.9447 130.378 24.9032C130.515 24.8617 130.643 24.7926 130.753 24.7001C130.833 24.6546 130.892 24.5803 130.919 24.4923C130.989 24.4854 131.058 24.4801 131.129 24.4755C131.07 24.7647 130.975 25.0456 130.847 25.3118H130.845Z" fill="currentColor"/>
<path d="M89.7063 28.0612C89.8274 28.5426 90.1747 29.0171 90.5572 28.6645C90.8446 28.4 90.597 27.6005 90.3395 27.3997C90.0819 27.1989 89.4833 27.1736 89.7063 28.0612Z" fill="currentColor"/>
<path d="M93.122 27.028C93.2692 27.5646 93.7061 27.5991 93.8885 27.3584C94.1108 27.0594 93.8762 26.4554 93.6831 26.2392C93.411 25.9395 92.8851 26.1626 93.122 27.028Z" fill="currentColor"/>
<path d="M92.7427 27.8559C93.2739 28.6301 93.4326 29.0019 93.6487 29.3438C93.4164 29.3941 93.1885 29.463 92.9673 29.55C92.9123 29.5699 92.8658 29.608 92.8355 29.658C92.8052 29.708 92.7929 29.7669 92.8007 29.8248C92.8085 29.8828 92.8359 29.9363 92.8783 29.9766C92.9208 30.0168 92.9757 30.0413 93.034 30.0459C93.4204 30.0028 93.7942 29.8824 94.1332 29.6918C94.3877 29.412 93.9944 28.8984 93.8641 28.6815C93.4825 28.0104 93.023 27.3867 92.4951 26.8234C92.4601 26.7954 92.4163 26.7806 92.3714 26.7815C92.3266 26.7825 92.2835 26.7991 92.2496 26.8286C92.2158 26.8581 92.1934 26.8985 92.1863 26.9428C92.1791 26.9871 92.1878 27.0324 92.2107 27.071C92.3725 27.3429 92.5501 27.605 92.7427 27.8559Z" fill="currentColor"/>
<path d="M88.9636 27.4572C88.9727 27.5007 88.9964 27.5397 89.0309 27.5677C89.0655 27.5956 89.1086 27.6108 89.153 27.6105H89.2296C89.2614 27.6106 89.2927 27.6028 89.3207 27.5877C89.3487 27.5727 89.3725 27.5509 89.39 27.5244C89.4074 27.4978 89.4181 27.4674 89.4209 27.4357C89.4236 27.4041 89.4185 27.3722 89.4059 27.343C89.4057 27.1375 89.4757 26.938 89.6042 26.7776C89.7327 26.6172 89.912 26.5054 90.1127 26.4607C90.5013 26.4607 90.617 26.2239 90.5059 26.0461C90.495 26.019 90.4783 25.9946 90.4568 25.9748C90.2471 25.9166 90.025 25.9209 89.8176 25.987C89.6103 26.0532 89.4267 26.1784 89.2894 26.3473C89.1524 26.4942 89.0516 26.671 88.9951 26.8637C88.9385 27.0564 88.9277 27.2596 88.9636 27.4572Z" fill="currentColor"/>
<path d="M90.2529 29.8786C90.3385 30.9011 90.7978 31.8562 91.543 32.5615C91.9968 32.9087 92.5042 32.6994 92.9603 32.3507C93.4005 32.0238 93.775 31.6168 94.0641 31.151C94.0891 31.0993 94.0954 31.0405 94.0821 30.9846C94.0687 30.9287 94.0365 30.8791 93.9909 30.8442C93.9452 30.8092 93.8889 30.7911 93.8315 30.7928C93.7741 30.7946 93.719 30.816 93.6755 30.8536C93.2759 31.3818 92.7802 31.8299 92.2145 32.1744C92.1241 32.1991 92.0283 32.1956 91.9399 32.1643C91.8516 32.1331 91.7749 32.0756 91.7201 31.9996C91.2968 31.5166 90.9974 30.9378 90.8478 30.3132C91.2944 30.5112 91.7707 30.6338 92.2574 30.6758C92.9055 30.8247 93.5857 30.7292 94.1676 30.4075C94.3922 30.2833 94.1738 29.8709 93.9614 30.0304C93.4378 30.2511 92.8573 30.2984 92.3049 30.1653C91.7148 30.097 91.1466 29.9008 90.64 29.5904C90.5952 29.5701 90.5457 29.5622 90.4967 29.5675C90.4478 29.5728 90.4011 29.5911 90.3616 29.6205C90.3221 29.6499 90.2912 29.6894 90.2721 29.7348C90.253 29.7801 90.2464 29.8298 90.2529 29.8786Z" fill="currentColor"/>
<path d="M40.0129 49.0581C42.5892 49.8338 45.7619 49.5325 47.8706 47.6315C48.9779 46.6076 49.9101 45.4092 50.6301 44.084C50.7635 43.9054 50.6623 43.6027 50.3197 43.6617C48.5679 43.9536 46.7823 43.9815 45.0222 43.7445C44.9775 43.7435 44.9332 43.7536 44.8933 43.7739C44.8534 43.7941 44.8191 43.824 44.7936 43.8607C44.768 43.8974 44.7519 43.9399 44.7467 43.9844C44.7415 44.0288 44.7474 44.0738 44.7639 44.1155C43.9031 45.339 42.6573 46.239 41.2254 46.6719C39.7934 47.1048 38.2577 47.0457 36.8632 46.504C36.8097 46.4935 36.7543 46.4993 36.7041 46.5206C36.6538 46.5418 36.6111 46.5776 36.5814 46.6233C36.5516 46.6691 36.5362 46.7226 36.5371 46.7772C36.5381 46.8317 36.5553 46.8847 36.5865 46.9294C37.4539 48.0073 38.6623 48.758 40.0129 49.0581ZM49.8245 44.268C49.0616 45.5425 48.0749 46.6687 46.9117 47.5925C46.9268 47.5588 46.9342 47.5222 46.9334 47.4853C46.9325 47.4484 46.9235 47.4121 46.9069 47.3792C46.8903 47.3462 46.8666 47.3174 46.8375 47.2947C46.8083 47.2721 46.7745 47.2562 46.7385 47.2483C46.6573 47.2012 46.5702 47.1654 46.4794 47.1417C46.4874 47.0059 46.4644 46.87 46.4121 46.7443C46.3597 46.6187 46.2795 46.5066 46.1774 46.4166C45.964 46.2624 45.7013 46.1921 45.4394 46.2189C45.1775 46.2458 44.9346 46.368 44.757 46.5622C44.4105 46.8497 44.0993 47.315 43.7007 47.1693C43.4976 47.1003 43.5198 47.016 43.5328 46.9654C43.5727 46.8659 43.6326 46.7756 43.7088 46.7002C43.785 46.6248 43.8759 46.5658 43.9759 46.527C43.9896 46.5493 44.0077 46.5687 44.0292 46.5837C44.0507 46.5987 44.0751 46.6092 44.1008 46.6144C44.1828 46.6335 44.2296 46.596 44.3078 46.5377C44.5148 46.3905 44.2894 46.0694 44.0073 46.0487C43.7625 46.0685 43.5328 46.175 43.3596 46.3491C43.3059 46.3565 43.2515 46.3565 43.1979 46.3491H43.1128C43.929 45.8216 44.6268 45.1301 45.1617 44.3186C46.7098 44.508 48.2762 44.4913 49.8199 44.2688L49.8245 44.268ZM42.8368 46.7263C42.8614 46.7586 42.8945 46.7835 42.9324 46.7981C42.9703 46.8127 43.0115 46.8165 43.0514 46.8091C43.0086 46.9851 43.0368 47.171 43.1299 47.3265C43.223 47.482 43.3735 47.5946 43.5489 47.64C44.1621 47.8531 44.6857 47.3188 44.8643 47.1341C45.0233 46.9451 45.2292 46.8013 45.4614 46.7171C45.5521 46.6861 45.6511 46.6893 45.7396 46.7262C45.8281 46.763 45.9001 46.8309 45.942 46.9171C45.9801 47.0072 45.9823 47.1083 45.9483 47.2C45.9142 47.2916 45.8465 47.3667 45.7588 47.41C45.5256 47.4869 45.2816 47.5259 45.036 47.5258C44.9674 47.519 44.8988 47.5393 44.8449 47.5822C44.791 47.6251 44.7558 47.6874 44.747 47.7557C44.7426 47.812 44.7591 47.868 44.7933 47.913C44.8275 47.9579 44.877 47.9887 44.9325 47.9995C45.176 48.0703 45.4345 48.0713 45.6785 48.0021C45.9225 47.933 46.1421 47.7966 46.3123 47.6086C46.52 47.6699 46.5422 47.7519 46.6771 47.7534C45.9661 48.2379 45.166 48.5766 44.3231 48.7499C43.035 48.9975 41.7079 48.9549 40.4383 48.625C39.4353 48.4429 38.5002 47.9926 37.7325 47.3219C39.4569 47.7025 41.2612 47.425 42.7916 46.5438C42.7817 46.6078 42.7962 46.6732 42.8322 46.727L42.8368 46.7263Z" fill="currentColor"/>
<path d="M15.2012 45.8961C15.2064 45.9478 15.2261 45.9969 15.258 46.0379C15.29 46.0788 15.3329 46.1098 15.3818 46.1273C15.4307 46.1448 15.4835 46.148 15.5342 46.1367C15.5849 46.1254 15.6313 46.0999 15.668 46.0632C17.1803 44.3732 19.0438 43.0342 21.128 42.1401C22.1302 41.7224 23.2145 41.5389 24.2983 41.6036C25.3821 41.6683 26.4368 41.9795 27.3822 42.5134C27.4325 42.5392 27.4894 42.5496 27.5456 42.5433C27.6018 42.5369 27.6549 42.5142 27.6983 42.4779C27.7417 42.4417 27.7734 42.3934 27.7896 42.3392C27.8058 42.285 27.8056 42.2272 27.7892 42.1731C27.3152 40.86 26.6901 39.6065 25.9265 38.4378C25.9025 38.408 25.8728 38.3833 25.8392 38.3651C25.8055 38.347 25.7686 38.3358 25.7305 38.3321C25.6924 38.3285 25.654 38.3325 25.6175 38.3439C25.581 38.3554 25.5472 38.374 25.518 38.3987C23.1233 37.6492 20.532 37.8516 18.2827 38.9636C17.1428 39.44 16.2305 40.3375 15.7355 41.4694C15.2347 42.8879 15.0523 44.3992 15.2012 45.8961ZM25.5402 38.8632C26.0981 39.7696 26.5851 40.7178 26.9966 41.6994C25.3364 40.9558 23.4654 40.8286 21.7198 41.3406C21.7486 41.3062 21.7643 41.2628 21.7643 41.218C21.7643 41.0248 21.7221 41.0647 21.6317 40.8508C21.7663 40.8101 21.8913 40.7425 21.999 40.6519C22.1066 40.5614 22.1947 40.4499 22.2579 40.3242C22.4825 39.7708 21.8509 39.2511 21.1809 39.1698C21.0287 39.1633 20.8771 39.1464 20.7271 39.1192C20.6895 39.107 20.658 39.0808 20.6393 39.0459C20.6206 39.0111 20.6161 38.9703 20.6267 38.9322C20.7377 38.7689 20.9018 38.6491 21.0912 38.5934C21.1094 38.5875 21.1265 38.5787 21.1418 38.5673C22.6114 38.3304 24.1156 38.4315 25.5402 38.8632ZM20.1982 38.7728C20.0534 39.1683 20.2511 39.5393 20.7969 39.6228C21.1008 39.6039 21.4015 39.6936 21.6455 39.8758C21.7014 39.9249 21.8287 40.0483 21.7988 40.118C21.6171 40.4714 20.9862 40.4308 20.6306 40.1479C20.5999 40.1287 20.5655 40.1163 20.5296 40.1116C20.4937 40.1069 20.4572 40.11 20.4227 40.1207C20.3881 40.1314 20.3563 40.1495 20.3293 40.1736C20.3023 40.1977 20.2809 40.2274 20.2665 40.2606C20.2554 40.2994 20.2531 40.3401 20.2598 40.3799C20.2664 40.4197 20.2818 40.4575 20.3048 40.4906C20.4141 40.6139 20.5474 40.7137 20.6966 40.7839C20.8458 40.854 21.0077 40.8929 21.1725 40.8984C21.1955 41.0087 21.2375 41.1143 21.2967 41.2103C21.3181 41.2556 21.3485 41.296 21.3861 41.3291C21.4236 41.3621 21.4676 41.3872 21.5151 41.4027C19.2995 42.2162 17.2994 43.5259 15.668 45.2315C15.6332 44.1233 15.7713 43.0165 16.0774 41.9508C16.2989 41.3641 16.6387 40.8292 17.0757 40.3794C17.5127 39.9296 18.0376 39.5745 18.6177 39.3362C19.1301 39.1101 19.6583 38.9217 20.1982 38.7728Z" fill="currentColor"/>
<path d="M142.273 40.302C142.293 40.2444 142.298 40.1831 142.289 40.1231C142.28 40.0631 142.256 40.0061 142.221 39.9569C142.185 39.9076 142.139 39.8675 142.085 39.8398C142.031 39.8122 141.971 39.7977 141.91 39.7976C141.825 39.7904 141.739 39.812 141.668 39.8589C141.596 39.9059 141.542 39.9755 141.515 40.0567C126.972 82.5501 100.987 120.039 61.3485 141.885C61.2574 141.947 61.1927 142.041 61.1673 142.148C61.142 142.255 61.1578 142.368 61.2115 142.465C61.2653 142.561 61.3533 142.633 61.4579 142.668C61.5626 142.703 61.6765 142.697 61.777 142.651C100.711 121.661 128.064 82.9326 142.273 40.302Z" fill="currentColor"/>
<path d="M144.019 37.2964C141.001 70.225 128.25 101.51 107.391 127.168C105.729 129.204 105.747 129.117 105.747 129.309C105.743 129.396 105.766 129.482 105.813 129.555C105.86 129.628 105.928 129.685 106.009 129.718C106.089 129.75 106.178 129.757 106.263 129.737C106.347 129.717 106.424 129.672 106.481 129.607C123.568 109.276 135.539 85.1494 141.393 59.2452C143.021 52.0386 144.156 44.7294 144.791 37.3685C144.836 36.861 144.063 36.8396 144.019 37.2964Z" fill="currentColor"/>
</svg>
